<?xml version="1.0" encoding="UTF-8" standalone="no"?>
<svg
   width="500"
   zoomAndPan="magnify"
   viewBox="0 0 375 374.999991"
   height="500"
   preserveAspectRatio="xMidYMid meet"
   version="1.0"
   id="svg275"
   sodipodi:docname="client1.svg"
   inkscape:version="1.2.2 (732a01da63, 2022-12-09)"
   xmlns:inkscape="http://www.inkscape.org/namespaces/inkscape"
   xmlns:sodipodi="http://sodipodi.sourceforge.net/DTD/sodipodi-0.dtd"
   xmlns="http://www.w3.org/2000/svg"
   xmlns:svg="http://www.w3.org/2000/svg">
  <sodipodi:namedview
     id="namedview277"
     pagecolor="#505050"
     bordercolor="#ffffff"
     borderopacity="1"
     inkscape:showpageshadow="0"
     inkscape:pageopacity="0"
     inkscape:pagecheckerboard="1"
     inkscape:deskcolor="#505050"
     showgrid="false"
     inkscape:zoom="2.09"
     inkscape:cx="250"
     inkscape:cy="164.83254"
     inkscape:window-width="2400"
     inkscape:window-height="1261"
     inkscape:window-x="2391"
     inkscape:window-y="-9"
     inkscape:window-maximized="1"
     inkscape:current-layer="svg275" />
  <defs
     id="defs149">
    <g
       id="g144" />
    <clipPath
       id="3cf7da4546">
      <path
         d="M 0 44.753906 L 191.25 44.753906 L 191.25 324.503906 L 0 324.503906 Z M 0 44.753906 "
         clip-rule="nonzero"
         id="path146" />
    </clipPath>
  </defs>
  <g
     clip-path="url(#3cf7da4546)"
     id="g153">
    <path
       fill="#e3a72f"
       d="M 122.089844 44.789062 L 158.09375 44.789062 C 162.207031 44.789062 165.542969 48.105469 165.5625 52.207031 C 165.5625 52.230469 165.5625 52.253906 165.5625 52.273438 L 167.265625 76.59375 C 167.304688 77.121094 167.671875 77.558594 168.179688 77.691406 C 175.941406 79.71875 183.367188 82.558594 190.367188 86.128906 C 190.371094 86.128906 190.375 86.132812 190.378906 86.132812 C 191.046875 86.480469 191.242188 87.34375 190.785156 87.941406 L 173.734375 110.296875 C 173.394531 110.742188 172.792969 110.902344 172.277344 110.679688 C 169.367188 109.414062 166.367188 108.316406 163.289062 107.394531 C 159.351562 106.21875 155.289062 105.335938 151.125 104.765625 C 148.628906 104.425781 146.097656 104.199219 143.535156 104.089844 C 142.394531 104.042969 141.246094 104.019531 140.089844 104.019531 C 137.878906 104.019531 135.683594 104.109375 133.515625 104.28125 C 109.867188 106.183594 89.101562 118.253906 75.601562 136.109375 C 65.394531 149.609375 59.339844 166.414062 59.339844 184.628906 C 59.339844 229.152344 95.496094 265.238281 140.089844 265.238281 C 151.535156 265.238281 162.417969 262.863281 172.277344 258.582031 C 172.792969 258.359375 173.394531 258.515625 173.734375 258.964844 L 175.335938 261.0625 L 190.777344 281.304688 C 191.234375 281.90625 191.039062 282.78125 190.367188 283.128906 C 190.285156 283.171875 190.203125 283.214844 190.121094 283.253906 C 190.011719 283.3125 189.90625 283.367188 189.792969 283.421875 C 186.285156 285.183594 182.667969 286.769531 178.953125 288.15625 C 175.445312 289.46875 171.851562 290.609375 168.179688 291.566406 C 167.671875 291.699219 167.304688 292.140625 167.265625 292.664062 L 165.5625 316.984375 C 165.5625 317.003906 165.5625 317.027344 165.5625 317.050781 C 165.542969 321.148438 162.207031 324.46875 158.09375 324.46875 L 122.089844 324.46875 C 117.980469 324.46875 114.640625 321.148438 114.625 317.050781 C 114.625 317.027344 114.625 317.003906 114.625 316.984375 L 112.921875 292.664062 C 112.882812 292.140625 112.515625 291.699219 112.003906 291.566406 C 102.136719 288.988281 92.804688 285.09375 84.210938 280.066406 C 83.757812 279.800781 83.183594 279.851562 82.785156 280.195312 L 64.347656 296.199219 C 64.332031 296.214844 64.316406 296.226562 64.300781 296.242188 C 61.382812 299.128906 56.675781 299.121094 53.765625 296.21875 L 38.25 280.730469 L 28.308594 270.804688 C 25.398438 267.902344 25.390625 263.199219 28.285156 260.289062 C 28.300781 260.273438 28.316406 260.257812 28.328125 260.238281 L 44.359375 241.832031 C 44.703125 241.441406 44.753906 240.863281 44.488281 240.410156 C 39.453125 231.832031 35.546875 222.519531 32.96875 212.667969 C 32.835938 212.160156 32.394531 211.789062 31.867188 211.753906 L 7.503906 210.054688 C 7.484375 210.050781 7.460938 210.050781 7.441406 210.050781 C 3.332031 210.035156 0.00390625 206.707031 0.00390625 202.601562 L 0.00390625 166.65625 C 0.00390625 162.550781 3.332031 159.222656 7.441406 159.203125 C 7.460938 159.203125 7.484375 159.203125 7.503906 159.203125 L 31.867188 157.503906 C 32.394531 157.46875 32.835938 157.097656 32.96875 156.589844 C 35.546875 146.738281 39.453125 137.425781 44.488281 128.84375 C 44.753906 128.394531 44.703125 127.820312 44.359375 127.425781 L 41.65625 124.316406 L 28.328125 109.019531 C 28.316406 109 28.300781 108.984375 28.285156 108.96875 C 25.390625 106.058594 25.398438 101.355469 28.308594 98.453125 L 38.25 88.527344 L 53.765625 73.039062 C 56.675781 70.136719 61.382812 70.128906 64.300781 73.015625 C 64.316406 73.03125 64.332031 73.042969 64.347656 73.058594 L 82.785156 89.0625 C 83.183594 89.40625 83.757812 89.457031 84.210938 89.191406 C 91.636719 84.851562 99.609375 81.347656 108.003906 78.816406 C 109.328125 78.417969 110.660156 78.039062 112.003906 77.691406 C 112.515625 77.558594 112.882812 77.117188 112.921875 76.59375 L 113.171875 72.988281 L 113.382812 69.980469 L 114.015625 60.96875 L 114.625 52.273438 C 114.625 52.253906 114.625 52.230469 114.625 52.207031 C 114.640625 48.105469 117.980469 44.789062 122.089844 44.789062 "
       fill-opacity="1"
       fill-rule="nonzero"
       id="path151" />
  </g>
  <g
     fill="#e3a72f"
     fill-opacity="1"
     id="g161">
    <g
       transform="translate(89.520975, 218.798869)"
       id="g159">
      <g
         id="g157">
        <path
           d="M 52.003906 -62.011719 L 24.609375 -62.011719 C 21.296875 -62.011719 18.4375 -61.558594 16.105469 -60.730469 C 13.695312 -59.828125 11.738281 -58.398438 10.308594 -56.515625 C 8.804688 -54.636719 7.675781 -52.152344 7 -49.140625 C 6.320312 -46.207031 6.019531 -42.59375 6.019531 -38.457031 L 6.019531 -23.554688 C 6.019531 -19.339844 6.320312 -15.730469 7 -12.71875 C 7.675781 -9.785156 8.804688 -7.300781 10.308594 -5.34375 C 11.816406 -3.460938 13.773438 -2.03125 16.105469 -1.203125 C 18.4375 -0.375 21.296875 0.0742188 24.609375 0.0742188 L 52.003906 0.0742188 C 52.605469 0.0742188 54.109375 -0.226562 54.109375 -2.558594 L 54.109375 -8.503906 C 54.109375 -10.835938 52.605469 -11.136719 52.003906 -11.136719 L 24.984375 -11.136719 C 23.40625 -11.136719 22.050781 -11.289062 21.070312 -11.664062 C 20.09375 -11.964844 19.417969 -12.492188 18.8125 -13.320312 C 18.210938 -14.074219 17.835938 -15.203125 17.535156 -16.632812 C 17.308594 -18.136719 17.160156 -20.019531 17.160156 -22.277344 L 17.160156 -39.808594 C 17.160156 -42.066406 17.308594 -43.949219 17.535156 -45.378906 C 17.835938 -46.808594 18.210938 -47.863281 18.8125 -48.691406 C 19.417969 -49.519531 20.09375 -50.046875 21.070312 -50.347656 C 22.050781 -50.722656 23.40625 -50.875 24.984375 -50.875 L 52.003906 -50.875 C 52.605469 -50.875 54.109375 -51.175781 54.109375 -53.582031 L 54.109375 -59.378906 C 54.109375 -61.710938 52.605469 -62.011719 52.003906 -62.011719 Z M 52.003906 -62.011719 "
           id="path155" />
      </g>
    </g>
  </g>
  <g
     fill="#e3a72f"
     fill-opacity="1"
     id="g169">
    <g
       transform="translate(153.407, 218.798869)"
       id="g167">
      <g
         id="g165">
        <path
           d="M 58.023438 -62.011719 L 51.097656 -62.011719 C 50.421875 -62.011719 48.992188 -61.785156 48.992188 -59.453125 L 48.992188 -22.351562 C 48.992188 -20.09375 48.839844 -18.136719 48.617188 -16.707031 C 48.390625 -15.277344 47.9375 -14.148438 47.410156 -13.320312 C 46.808594 -12.566406 46.132812 -12.039062 45.152344 -11.664062 C 44.175781 -11.363281 42.820312 -11.136719 41.242188 -11.136719 L 24.984375 -11.136719 C 23.40625 -11.136719 22.050781 -11.363281 21.070312 -11.664062 C 20.09375 -12.039062 19.417969 -12.566406 18.8125 -13.320312 C 18.289062 -14.148438 17.835938 -15.277344 17.535156 -16.707031 C 17.308594 -18.136719 17.160156 -20.09375 17.160156 -22.351562 L 17.160156 -59.453125 C 17.160156 -61.785156 15.730469 -62.011719 15.050781 -62.011719 L 8.203125 -62.011719 C 7.527344 -62.011719 6.019531 -61.785156 6.019531 -59.453125 L 6.019531 -23.554688 C 6.019531 -19.339844 6.320312 -15.730469 7 -12.792969 C 7.675781 -9.785156 8.804688 -7.300781 10.308594 -5.417969 C 11.738281 -3.460938 13.773438 -2.105469 16.105469 -1.203125 C 18.4375 -0.375 21.296875 0 24.609375 0 L 41.542969 0 C 44.851562 0 47.710938 -0.375 50.046875 -1.203125 C 52.453125 -2.105469 54.410156 -3.460938 55.914062 -5.417969 C 57.421875 -7.300781 58.472656 -9.785156 59.152344 -12.792969 C 59.828125 -15.730469 60.128906 -19.339844 60.128906 -23.554688 L 60.128906 -59.453125 C 60.128906 -61.785156 58.699219 -62.011719 58.023438 -62.011719 Z M 58.023438 -62.011719 "
           id="path163" />
      </g>
    </g>
  </g>
  <g
     fill="#e3a72f"
     fill-opacity="1"
     id="g177">
    <g
       transform="translate(223.312906, 218.798869)"
       id="g175">
      <g
         id="g173">
        <path
           d="M 57.34375 -44.023438 C 57.34375 -43.949219 57.34375 -43.875 57.34375 -43.800781 C 57.34375 -43.722656 57.34375 -43.648438 57.34375 -43.574219 Z M 58.773438 -3.234375 L 45.605469 -25.8125 C 49.292969 -26.265625 52.152344 -27.84375 54.035156 -30.402344 C 56.140625 -33.488281 57.269531 -37.929688 57.34375 -43.800781 C 57.269531 -49.667969 56.140625 -54.109375 54.035156 -57.195312 C 51.777344 -60.429688 48.011719 -62.011719 42.894531 -62.011719 L 8.203125 -62.011719 C 7.527344 -62.011719 6.019531 -61.785156 6.019531 -59.378906 L 6.019531 -53.433594 C 6.019531 -51.097656 7.527344 -50.875 8.203125 -50.875 L 40.9375 -50.875 C 42.894531 -50.875 44.175781 -50.347656 44.929688 -49.21875 C 45.753906 -48.089844 46.132812 -46.28125 46.132812 -43.800781 C 46.132812 -41.316406 45.753906 -39.507812 44.929688 -38.378906 C 44.175781 -37.25 42.894531 -36.726562 40.9375 -36.726562 L 8.203125 -36.726562 C 7.527344 -36.726562 6.019531 -36.5 6.019531 -34.167969 L 6.019531 -2.558594 C 6.019531 -0.226562 7.527344 0.0742188 8.203125 0.0742188 L 15.050781 0.0742188 C 15.730469 0.0742188 17.160156 -0.226562 17.160156 -2.558594 L 17.160156 -25.585938 L 33.039062 -25.585938 L 46.660156 -1.429688 C 46.960938 -0.976562 47.1875 -0.601562 47.488281 -0.375 C 47.863281 -0.0742188 48.390625 0.0742188 49.066406 0.0742188 L 57.34375 0.0742188 C 58.25 0.0742188 58.925781 -0.527344 59.074219 -1.429688 C 59.152344 -2.183594 59.074219 -2.785156 58.773438 -3.234375 Z M 58.773438 -3.234375 "
           id="path171" />
      </g>
    </g>
  </g>
  <g
     fill="#e3a72f"
     fill-opacity="1"
     id="g185">
    <g
       transform="translate(292.240601, 218.798869)"
       id="g183">
      <g
         id="g181">
        <path
           d="M 46.359375 -55.011719 C 46.207031 -55.386719 46.058594 -55.839844 45.90625 -56.140625 C 44.703125 -60.054688 41.089844 -62.839844 36.949219 -62.839844 C 35.070312 -62.839844 33.261719 -62.3125 31.757812 -61.257812 C 31.304688 -61.03125 30.929688 -60.730469 30.628906 -60.507812 C 29.5 -59.527344 28.371094 -57.722656 27.316406 -55.011719 L 6.320312 -2.859375 C 6.097656 -2.183594 6.019531 -1.503906 6.171875 -1.054688 C 6.246094 -0.601562 6.621094 0.0742188 7.828125 0.0742188 L 16.105469 0.0742188 C 17.082031 0.0742188 17.835938 -0.527344 18.210938 -1.503906 L 22.5 -12.265625 L 38.984375 -12.265625 C 39.808594 -12.265625 40.5625 -12.644531 40.9375 -13.320312 C 41.390625 -13.921875 41.464844 -14.75 41.242188 -15.503906 L 38.53125 -22.199219 C 38.15625 -23.105469 37.328125 -23.707031 36.347656 -23.707031 L 27.015625 -23.707031 L 36.648438 -48.089844 C 36.726562 -48.238281 36.800781 -48.316406 36.800781 -48.316406 L 37.101562 -48.316406 C 37.101562 -48.316406 37.101562 -48.316406 37.175781 -48.164062 L 55.839844 -1.582031 C 56.214844 -0.527344 56.96875 0.0742188 58.023438 0.0742188 L 66.074219 0.0742188 C 67.277344 0.0742188 67.578125 -0.675781 67.730469 -1.054688 C 67.882812 -1.503906 67.804688 -2.183594 67.503906 -2.859375 Z M 46.359375 -55.011719 "
           id="path179" />
      </g>
    </g>
  </g>
  <g
     fill="#e3a72f"
     fill-opacity="1"
     id="g193">
    <g
       transform="translate(191.398198, 260.560587)"
       id="g191">
      <g
         id="g189">
        <path
           d="M 12.972656 -3.410156 L 6.265625 -3.410156 C 5.867188 -3.410156 5.542969 -3.464844 5.277344 -3.542969 C 5.027344 -3.636719 4.855469 -3.769531 4.703125 -3.960938 C 4.550781 -4.171875 4.4375 -4.457031 4.382812 -4.820312 C 4.363281 -4.914062 4.363281 -5.046875 4.34375 -5.144531 C 4.34375 -5.144531 4.363281 -6.515625 4.382812 -6.515625 L 12.894531 -6.515625 C 13.046875 -6.515625 13.429688 -6.589844 13.429688 -7.179688 L 13.429688 -8.6875 C 13.429688 -9.277344 13.046875 -9.332031 12.894531 -9.332031 L 3.066406 -9.3125 C 2.515625 -9.277344 2.039062 -8.992188 1.769531 -8.515625 C 1.675781 -8.363281 1.601562 -8.210938 1.5625 -8.039062 L 1.523438 -5.636719 L 1.523438 -5.542969 C 1.542969 -4.648438 1.636719 -3.886719 1.769531 -3.257812 C 1.941406 -2.496094 2.230469 -1.867188 2.589844 -1.390625 C 2.972656 -0.894531 3.464844 -0.550781 4.078125 -0.34375 C 4.667969 -0.113281 5.371094 -0.0195312 6.210938 -0.0195312 L 12.972656 -0.0195312 C 13.144531 -0.0195312 13.523438 -0.078125 13.523438 -0.667969 L 13.523438 -2.761719 C 13.523438 -3.351562 13.144531 -3.410156 12.972656 -3.410156 Z M 12.992188 -15.734375 L 2.039062 -15.734375 C 1.886719 -15.734375 1.523438 -15.65625 1.523438 -15.046875 L 1.523438 -13.5625 C 1.523438 -12.972656 1.886719 -12.914062 2.039062 -12.914062 L 12.992188 -12.894531 C 13.144531 -12.894531 13.523438 -12.972656 13.523438 -13.5625 L 13.523438 -15.066406 C 13.523438 -15.65625 13.144531 -15.734375 12.992188 -15.734375 Z M 12.992188 -15.734375 "
           id="path187" />
      </g>
    </g>
  </g>
  <g
     fill="#e3a72f"
     fill-opacity="1"
     id="g201">
    <g
       transform="translate(207.389344, 260.560587)"
       id="g199">
      <g
         id="g197">
        <path
           d="M 15.007812 -15.695312 L 13.3125 -15.695312 C 13.144531 -15.695312 12.78125 -15.636719 12.78125 -15.027344 L 12.78125 -3.582031 C 12.78125 -3.5625 12.78125 -3.5625 12.78125 -3.542969 L 12.6875 -3.542969 C 12.667969 -3.542969 12.648438 -3.542969 12.628906 -3.601562 L 6.609375 -14.304688 C 6.457031 -14.589844 6.324219 -14.820312 6.191406 -14.992188 C 6.058594 -15.179688 5.925781 -15.332031 5.789062 -15.429688 C 5.636719 -15.542969 5.464844 -15.621094 5.257812 -15.65625 C 5.066406 -15.675781 4.839844 -15.695312 4.589844 -15.695312 L 3.160156 -15.695312 C 2.609375 -15.695312 2.191406 -15.503906 1.925781 -15.160156 C 1.65625 -14.800781 1.523438 -14.171875 1.523438 -13.238281 L 1.523438 -0.648438 C 1.523438 -0.0585938 1.90625 0.0195312 2.078125 0.0195312 L 3.769531 0.0195312 C 3.941406 0.0195312 4.304688 -0.0585938 4.304688 -0.648438 L 4.304688 -12.09375 C 4.304688 -12.113281 4.304688 -12.132812 4.304688 -12.132812 L 4.398438 -12.132812 C 4.398438 -12.132812 4.417969 -12.132812 4.457031 -12.078125 L 10.496094 -1.371094 C 10.648438 -1.066406 10.800781 -0.839844 10.933594 -0.667969 C 11.066406 -0.476562 11.199219 -0.34375 11.351562 -0.246094 C 11.503906 -0.132812 11.675781 -0.078125 11.867188 -0.0390625 C 12.039062 0 12.246094 0.0195312 12.515625 0.0195312 L 13.90625 0.0195312 C 14.457031 0.0195312 14.875 -0.171875 15.144531 -0.535156 C 15.410156 -0.875 15.542969 -1.503906 15.542969 -2.4375 L 15.542969 -15.027344 C 15.542969 -15.636719 15.160156 -15.695312 15.007812 -15.695312 Z M 15.007812 -15.695312 "
           id="path195" />
      </g>
    </g>
  </g>
  <g
     fill="#e3a72f"
     fill-opacity="1"
     id="g209">
    <g
       transform="translate(225.398423, 260.560587)"
       id="g207">
      <g
         id="g205">
        <path
           d="M 14.417969 -15.695312 L 6.230469 -15.695312 C 5.390625 -15.695312 4.667969 -15.582031 4.078125 -15.371094 C 3.484375 -15.144531 2.972656 -14.78125 2.609375 -14.304688 C 2.230469 -13.808594 1.941406 -13.199219 1.769531 -12.4375 C 1.601562 -11.695312 1.523438 -10.78125 1.523438 -9.734375 L 1.523438 -5.960938 C 1.523438 -4.894531 1.601562 -3.980469 1.769531 -3.21875 C 1.941406 -2.476562 2.230469 -1.847656 2.609375 -1.351562 C 2.992188 -0.875 3.484375 -0.515625 4.078125 -0.304688 C 4.667969 -0.09375 5.390625 0.0195312 6.230469 0.0195312 L 12.742188 0.0195312 C 13.449219 0.0195312 14 -0.265625 14.382812 -0.820312 C 14.742188 -1.351562 14.933594 -2.246094 14.933594 -3.523438 L 14.933594 -8.628906 C 14.933594 -9.351562 14.515625 -9.464844 14.265625 -9.464844 L 7.523438 -9.464844 C 7.371094 -9.464844 6.992188 -9.390625 6.992188 -8.78125 L 6.992188 -7.332031 C 6.992188 -6.703125 7.371094 -6.648438 7.523438 -6.648438 L 12.265625 -6.648438 C 12.265625 -6.648438 12.285156 -3.980469 12.285156 -3.980469 C 12.285156 -3.390625 12.191406 -3.144531 12.113281 -3.027344 C 12.019531 -2.875 11.867188 -2.820312 11.65625 -2.820312 L 6.324219 -2.820312 C 5.925781 -2.820312 5.582031 -2.855469 5.332031 -2.953125 C 5.085938 -3.027344 4.914062 -3.160156 4.761719 -3.371094 C 4.628906 -3.5625 4.515625 -3.847656 4.457031 -4.210938 C 4.382812 -4.589844 4.34375 -5.066406 4.34375 -5.636719 L 4.34375 -10.058594 C 4.34375 -10.628906 4.382812 -11.105469 4.457031 -11.484375 C 4.515625 -11.828125 4.628906 -12.113281 4.761719 -12.324219 C 4.914062 -12.515625 5.085938 -12.648438 5.332031 -12.742188 C 5.582031 -12.820312 5.925781 -12.875 6.324219 -12.875 L 14.417969 -12.875 C 14.570312 -12.875 14.953125 -12.933594 14.953125 -13.542969 L 14.953125 -15.027344 C 14.953125 -15.621094 14.570312 -15.695312 14.417969 -15.695312 Z M 14.417969 -15.695312 "
           id="path203" />
      </g>
    </g>
  </g>
  <g
     fill="#e3a72f"
     fill-opacity="1"
     id="g217">
    <g
       transform="translate(242.817356, 260.560587)"
       id="g215">
      <g
         id="g213">
        <path
           d="M 3.808594 -15.695312 L 2.058594 -15.695312 C 1.90625 -15.695312 1.523438 -15.621094 1.523438 -15.027344 L 1.523438 -0.648438 C 1.523438 -0.0585938 1.90625 0.0195312 2.058594 0.0195312 L 3.808594 0.0195312 C 3.960938 0.0195312 4.34375 -0.0585938 4.34375 -0.648438 L 4.34375 -15.027344 C 4.34375 -15.621094 3.960938 -15.695312 3.808594 -15.695312 Z M 3.808594 -15.695312 "
           id="path211" />
      </g>
    </g>
  </g>
  <g
     fill="#e3a72f"
     fill-opacity="1"
     id="g225">
    <g
       transform="translate(249.632636, 260.560587)"
       id="g223">
      <g
         id="g221">
        <path
           d="M 15.007812 -15.695312 L 13.3125 -15.695312 C 13.144531 -15.695312 12.78125 -15.636719 12.78125 -15.027344 L 12.78125 -3.582031 C 12.78125 -3.5625 12.78125 -3.5625 12.78125 -3.542969 L 12.6875 -3.542969 C 12.667969 -3.542969 12.648438 -3.542969 12.628906 -3.601562 L 6.609375 -14.304688 C 6.457031 -14.589844 6.324219 -14.820312 6.191406 -14.992188 C 6.058594 -15.179688 5.925781 -15.332031 5.789062 -15.429688 C 5.636719 -15.542969 5.464844 -15.621094 5.257812 -15.65625 C 5.066406 -15.675781 4.839844 -15.695312 4.589844 -15.695312 L 3.160156 -15.695312 C 2.609375 -15.695312 2.191406 -15.503906 1.925781 -15.160156 C 1.65625 -14.800781 1.523438 -14.171875 1.523438 -13.238281 L 1.523438 -0.648438 C 1.523438 -0.0585938 1.90625 0.0195312 2.078125 0.0195312 L 3.769531 0.0195312 C 3.941406 0.0195312 4.304688 -0.0585938 4.304688 -0.648438 L 4.304688 -12.09375 C 4.304688 -12.113281 4.304688 -12.132812 4.304688 -12.132812 L 4.398438 -12.132812 C 4.398438 -12.132812 4.417969 -12.132812 4.457031 -12.078125 L 10.496094 -1.371094 C 10.648438 -1.066406 10.800781 -0.839844 10.933594 -0.667969 C 11.066406 -0.476562 11.199219 -0.34375 11.351562 -0.246094 C 11.503906 -0.132812 11.675781 -0.078125 11.867188 -0.0390625 C 12.039062 0 12.246094 0.0195312 12.515625 0.0195312 L 13.90625 0.0195312 C 14.457031 0.0195312 14.875 -0.171875 15.144531 -0.535156 C 15.410156 -0.875 15.542969 -1.503906 15.542969 -2.4375 L 15.542969 -15.027344 C 15.542969 -15.636719 15.160156 -15.695312 15.007812 -15.695312 Z M 15.007812 -15.695312 "
           id="path219" />
      </g>
    </g>
  </g>
  <g
     fill="#e3a72f"
     fill-opacity="1"
     id="g233">
    <g
       transform="translate(267.641715, 260.560587)"
       id="g231">
      <g
         id="g229">
        <path
           d="M 12.972656 -3.410156 L 6.265625 -3.410156 C 5.867188 -3.410156 5.542969 -3.464844 5.277344 -3.542969 C 5.027344 -3.636719 4.855469 -3.769531 4.703125 -3.960938 C 4.550781 -4.171875 4.4375 -4.457031 4.382812 -4.820312 C 4.363281 -4.914062 4.363281 -5.046875 4.34375 -5.144531 C 4.34375 -5.144531 4.363281 -6.515625 4.382812 -6.515625 L 12.894531 -6.515625 C 13.046875 -6.515625 13.429688 -6.589844 13.429688 -7.179688 L 13.429688 -8.6875 C 13.429688 -9.277344 13.046875 -9.332031 12.894531 -9.332031 L 3.066406 -9.3125 C 2.515625 -9.277344 2.039062 -8.992188 1.769531 -8.515625 C 1.675781 -8.363281 1.601562 -8.210938 1.5625 -8.039062 L 1.523438 -5.636719 L 1.523438 -5.542969 C 1.542969 -4.648438 1.636719 -3.886719 1.769531 -3.257812 C 1.941406 -2.496094 2.230469 -1.867188 2.589844 -1.390625 C 2.972656 -0.894531 3.464844 -0.550781 4.078125 -0.34375 C 4.667969 -0.113281 5.371094 -0.0195312 6.210938 -0.0195312 L 12.972656 -0.0195312 C 13.144531 -0.0195312 13.523438 -0.078125 13.523438 -0.667969 L 13.523438 -2.761719 C 13.523438 -3.351562 13.144531 -3.410156 12.972656 -3.410156 Z M 12.992188 -15.734375 L 2.039062 -15.734375 C 1.886719 -15.734375 1.523438 -15.65625 1.523438 -15.046875 L 1.523438 -13.5625 C 1.523438 -12.972656 1.886719 -12.914062 2.039062 -12.914062 L 12.992188 -12.894531 C 13.144531 -12.894531 13.523438 -12.972656 13.523438 -13.5625 L 13.523438 -15.066406 C 13.523438 -15.65625 13.144531 -15.734375 12.992188 -15.734375 Z M 12.992188 -15.734375 "
           id="path227" />
      </g>
    </g>
  </g>
  <g
     fill="#e3a72f"
     fill-opacity="1"
     id="g241">
    <g
       transform="translate(283.632862, 260.560587)"
       id="g239">
      <g
         id="g237">
        <path
           d="M 12.972656 -3.410156 L 6.265625 -3.410156 C 5.867188 -3.410156 5.542969 -3.464844 5.277344 -3.542969 C 5.027344 -3.636719 4.855469 -3.769531 4.703125 -3.960938 C 4.550781 -4.171875 4.4375 -4.457031 4.382812 -4.820312 C 4.363281 -4.914062 4.363281 -5.046875 4.34375 -5.144531 C 4.34375 -5.144531 4.363281 -6.515625 4.382812 -6.515625 L 12.894531 -6.515625 C 13.046875 -6.515625 13.429688 -6.589844 13.429688 -7.179688 L 13.429688 -8.6875 C 13.429688 -9.277344 13.046875 -9.332031 12.894531 -9.332031 L 3.066406 -9.3125 C 2.515625 -9.277344 2.039062 -8.992188 1.769531 -8.515625 C 1.675781 -8.363281 1.601562 -8.210938 1.5625 -8.039062 L 1.523438 -5.636719 L 1.523438 -5.542969 C 1.542969 -4.648438 1.636719 -3.886719 1.769531 -3.257812 C 1.941406 -2.496094 2.230469 -1.867188 2.589844 -1.390625 C 2.972656 -0.894531 3.464844 -0.550781 4.078125 -0.34375 C 4.667969 -0.113281 5.371094 -0.0195312 6.210938 -0.0195312 L 12.972656 -0.0195312 C 13.144531 -0.0195312 13.523438 -0.078125 13.523438 -0.667969 L 13.523438 -2.761719 C 13.523438 -3.351562 13.144531 -3.410156 12.972656 -3.410156 Z M 12.992188 -15.734375 L 2.039062 -15.734375 C 1.886719 -15.734375 1.523438 -15.65625 1.523438 -15.046875 L 1.523438 -13.5625 C 1.523438 -12.972656 1.886719 -12.914062 2.039062 -12.914062 L 12.992188 -12.894531 C 13.144531 -12.894531 13.523438 -12.972656 13.523438 -13.5625 L 13.523438 -15.066406 C 13.523438 -15.65625 13.144531 -15.734375 12.992188 -15.734375 Z M 12.992188 -15.734375 "
           id="path235" />
      </g>
    </g>
  </g>
  <g
     fill="#e3a72f"
     fill-opacity="1"
     id="g249">
    <g
       transform="translate(299.624008, 260.560587)"
       id="g247">
      <g
         id="g245">
        <path
           d="M 14.515625 -11.144531 C 14.515625 -11.125 14.515625 -11.105469 14.515625 -11.085938 C 14.515625 -11.066406 14.515625 -11.046875 14.515625 -11.027344 Z M 14.875 -0.820312 L 11.542969 -6.535156 C 12.476562 -6.648438 13.199219 -7.046875 13.675781 -7.695312 C 14.210938 -8.476562 14.496094 -9.601562 14.515625 -11.085938 C 14.496094 -12.570312 14.210938 -13.695312 13.675781 -14.476562 C 13.105469 -15.296875 12.152344 -15.695312 10.855469 -15.695312 L 2.078125 -15.695312 C 1.90625 -15.695312 1.523438 -15.636719 1.523438 -15.027344 L 1.523438 -13.523438 C 1.523438 -12.933594 1.90625 -12.875 2.078125 -12.875 L 10.363281 -12.875 C 10.855469 -12.875 11.179688 -12.742188 11.371094 -12.457031 C 11.582031 -12.171875 11.675781 -11.714844 11.675781 -11.085938 C 11.675781 -10.457031 11.582031 -10 11.371094 -9.714844 C 11.179688 -9.429688 10.855469 -9.296875 10.363281 -9.296875 L 2.078125 -9.296875 C 1.90625 -9.296875 1.523438 -9.238281 1.523438 -8.648438 L 1.523438 -0.648438 C 1.523438 -0.0585938 1.90625 0.0195312 2.078125 0.0195312 L 3.808594 0.0195312 C 3.980469 0.0195312 4.34375 -0.0585938 4.34375 -0.648438 L 4.34375 -6.476562 L 8.363281 -6.476562 L 11.808594 -0.363281 C 11.886719 -0.246094 11.941406 -0.152344 12.019531 -0.09375 C 12.113281 -0.0195312 12.246094 0.0195312 12.417969 0.0195312 L 14.515625 0.0195312 C 14.742188 0.0195312 14.914062 -0.132812 14.953125 -0.363281 C 14.972656 -0.550781 14.953125 -0.703125 14.875 -0.820312 Z M 14.875 -0.820312 "
           id="path243" />
      </g>
    </g>
  </g>
  <g
     fill="#e3a72f"
     fill-opacity="1"
     id="g257">
    <g
       transform="translate(317.06198, 260.560587)"
       id="g255">
      <g
         id="g253">
        <path
           d="M 3.808594 -15.695312 L 2.058594 -15.695312 C 1.90625 -15.695312 1.523438 -15.621094 1.523438 -15.027344 L 1.523438 -0.648438 C 1.523438 -0.0585938 1.90625 0.0195312 2.058594 0.0195312 L 3.808594 0.0195312 C 3.960938 0.0195312 4.34375 -0.0585938 4.34375 -0.648438 L 4.34375 -15.027344 C 4.34375 -15.621094 3.960938 -15.695312 3.808594 -15.695312 Z M 3.808594 -15.695312 "
           id="path251" />
      </g>
    </g>
  </g>
  <g
     fill="#e3a72f"
     fill-opacity="1"
     id="g265">
    <g
       transform="translate(323.87726, 260.560587)"
       id="g263">
      <g
         id="g261">
        <path
           d="M 15.007812 -15.695312 L 13.3125 -15.695312 C 13.144531 -15.695312 12.78125 -15.636719 12.78125 -15.027344 L 12.78125 -3.582031 C 12.78125 -3.5625 12.78125 -3.5625 12.78125 -3.542969 L 12.6875 -3.542969 C 12.667969 -3.542969 12.648438 -3.542969 12.628906 -3.601562 L 6.609375 -14.304688 C 6.457031 -14.589844 6.324219 -14.820312 6.191406 -14.992188 C 6.058594 -15.179688 5.925781 -15.332031 5.789062 -15.429688 C 5.636719 -15.542969 5.464844 -15.621094 5.257812 -15.65625 C 5.066406 -15.675781 4.839844 -15.695312 4.589844 -15.695312 L 3.160156 -15.695312 C 2.609375 -15.695312 2.191406 -15.503906 1.925781 -15.160156 C 1.65625 -14.800781 1.523438 -14.171875 1.523438 -13.238281 L 1.523438 -0.648438 C 1.523438 -0.0585938 1.90625 0.0195312 2.078125 0.0195312 L 3.769531 0.0195312 C 3.941406 0.0195312 4.304688 -0.0585938 4.304688 -0.648438 L 4.304688 -12.09375 C 4.304688 -12.113281 4.304688 -12.132812 4.304688 -12.132812 L 4.398438 -12.132812 C 4.398438 -12.132812 4.417969 -12.132812 4.457031 -12.078125 L 10.496094 -1.371094 C 10.648438 -1.066406 10.800781 -0.839844 10.933594 -0.667969 C 11.066406 -0.476562 11.199219 -0.34375 11.351562 -0.246094 C 11.503906 -0.132812 11.675781 -0.078125 11.867188 -0.0390625 C 12.039062 0 12.246094 0.0195312 12.515625 0.0195312 L 13.90625 0.0195312 C 14.457031 0.0195312 14.875 -0.171875 15.144531 -0.535156 C 15.410156 -0.875 15.542969 -1.503906 15.542969 -2.4375 L 15.542969 -15.027344 C 15.542969 -15.636719 15.160156 -15.695312 15.007812 -15.695312 Z M 15.007812 -15.695312 "
           id="path259" />
      </g>
    </g>
  </g>
  <g
     fill="#e3a72f"
     fill-opacity="1"
     id="g273">
    <g
       transform="translate(341.886339, 260.560587)"
       id="g271">
      <g
         id="g269">
        <path
           d="M 14.417969 -15.695312 L 6.230469 -15.695312 C 5.390625 -15.695312 4.667969 -15.582031 4.078125 -15.371094 C 3.484375 -15.144531 2.972656 -14.78125 2.609375 -14.304688 C 2.230469 -13.808594 1.941406 -13.199219 1.769531 -12.4375 C 1.601562 -11.695312 1.523438 -10.78125 1.523438 -9.734375 L 1.523438 -5.960938 C 1.523438 -4.894531 1.601562 -3.980469 1.769531 -3.21875 C 1.941406 -2.476562 2.230469 -1.847656 2.609375 -1.351562 C 2.992188 -0.875 3.484375 -0.515625 4.078125 -0.304688 C 4.667969 -0.09375 5.390625 0.0195312 6.230469 0.0195312 L 12.742188 0.0195312 C 13.449219 0.0195312 14 -0.265625 14.382812 -0.820312 C 14.742188 -1.351562 14.933594 -2.246094 14.933594 -3.523438 L 14.933594 -8.628906 C 14.933594 -9.351562 14.515625 -9.464844 14.265625 -9.464844 L 7.523438 -9.464844 C 7.371094 -9.464844 6.992188 -9.390625 6.992188 -8.78125 L 6.992188 -7.332031 C 6.992188 -6.703125 7.371094 -6.648438 7.523438 -6.648438 L 12.265625 -6.648438 C 12.265625 -6.648438 12.285156 -3.980469 12.285156 -3.980469 C 12.285156 -3.390625 12.191406 -3.144531 12.113281 -3.027344 C 12.019531 -2.875 11.867188 -2.820312 11.65625 -2.820312 L 6.324219 -2.820312 C 5.925781 -2.820312 5.582031 -2.855469 5.332031 -2.953125 C 5.085938 -3.027344 4.914062 -3.160156 4.761719 -3.371094 C 4.628906 -3.5625 4.515625 -3.847656 4.457031 -4.210938 C 4.382812 -4.589844 4.34375 -5.066406 4.34375 -5.636719 L 4.34375 -10.058594 C 4.34375 -10.628906 4.382812 -11.105469 4.457031 -11.484375 C 4.515625 -11.828125 4.628906 -12.113281 4.761719 -12.324219 C 4.914062 -12.515625 5.085938 -12.648438 5.332031 -12.742188 C 5.582031 -12.820312 5.925781 -12.875 6.324219 -12.875 L 14.417969 -12.875 C 14.570312 -12.875 14.953125 -12.933594 14.953125 -13.542969 L 14.953125 -15.027344 C 14.953125 -15.621094 14.570312 -15.695312 14.417969 -15.695312 Z M 14.417969 -15.695312 "
           id="path267" />
      </g>
    </g>
  </g>
</svg>
