<svg xmlns="http://www.w3.org/2000/svg" xmlns:xlink="http://www.w3.org/1999/xlink" width="500" zoomAndPan="magnify" viewBox="0 0 375 374.999991" height="500" preserveAspectRatio="xMidYMid meet" version="1.0"><defs><g/><clipPath id="ec1a9a54f8"><path d="M 225 118.105469 L 351 118.105469 L 351 235 L 225 235 Z M 225 118.105469 " clip-rule="nonzero"/></clipPath><clipPath id="65825ef41a"><path d="M 304.195312 241.488281 L 343.261719 241.488281 L 343.261719 280.011719 L 304.195312 280.011719 Z M 304.195312 241.488281 " clip-rule="nonzero"/></clipPath></defs><path fill="#1e1e1e" d="M 288.175781 194.78125 C 287.222656 194.78125 286.453125 194.011719 286.453125 193.0625 L 286.453125 180.730469 C 286.453125 179.78125 287.222656 179.007812 288.175781 179.007812 C 289.128906 179.007812 289.898438 179.78125 289.898438 180.730469 L 289.898438 193.0625 C 289.898438 194.011719 289.128906 194.78125 288.175781 194.78125 " fill-opacity="1" fill-rule="nonzero"/><path fill="#1e1e1e" d="M 288.175781 156.667969 C 287.222656 156.667969 286.453125 155.898438 286.453125 154.949219 L 286.453125 127.675781 C 286.453125 126.726562 287.222656 125.957031 288.175781 125.957031 C 289.128906 125.957031 289.898438 126.726562 289.898438 127.675781 L 289.898438 154.949219 C 289.898438 155.898438 289.128906 156.667969 288.175781 156.667969 " fill-opacity="1" fill-rule="nonzero"/><path fill="#1e1e1e" d="M 288.175781 182.449219 C 287.222656 182.449219 286.453125 181.679688 286.453125 180.730469 L 286.453125 162.726562 C 286.453125 161.777344 287.222656 161.007812 288.175781 161.007812 C 289.128906 161.007812 289.898438 161.777344 289.898438 162.726562 L 289.898438 180.730469 C 289.898438 181.679688 289.128906 182.449219 288.175781 182.449219 " fill-opacity="1" fill-rule="nonzero"/><path fill="#1e1e1e" d="M 311.882812 149.898438 C 311.238281 149.898438 310.621094 149.539062 310.324219 148.921875 C 306.863281 141.710938 302.253906 135.152344 296.621094 129.429688 C 295.953125 128.75 295.964844 127.664062 296.640625 126.996094 C 297.320312 126.332031 298.414062 126.34375 299.082031 127.019531 C 304.984375 133.015625 309.8125 139.882812 313.4375 147.4375 C 313.847656 148.292969 313.484375 149.320312 312.625 149.730469 C 312.382812 149.847656 312.132812 149.898438 311.882812 149.898438 " fill-opacity="1" fill-rule="nonzero"/><path fill="#1e1e1e" d="M 317.914062 168.265625 C 317.101562 168.265625 316.375 167.691406 316.21875 166.867188 C 315.496094 163.058594 314.457031 159.285156 313.148438 155.652344 C 312.824219 154.757812 313.289062 153.773438 314.183594 153.453125 C 315.078125 153.128906 316.066406 153.589844 316.390625 154.484375 C 317.765625 158.289062 318.847656 162.238281 319.609375 166.226562 C 319.785156 167.160156 319.171875 168.058594 318.238281 168.234375 C 318.128906 168.253906 318.019531 168.265625 317.914062 168.265625 " fill-opacity="1" fill-rule="nonzero"/><path fill="#1e1e1e" d="M 314.644531 208.457031 C 314.445312 208.457031 314.246094 208.421875 314.050781 208.351562 C 313.15625 208.023438 312.695312 207.035156 313.023438 206.144531 C 316.011719 198.003906 317.523438 189.453125 317.523438 180.730469 C 317.523438 178.917969 317.460938 177.089844 317.328125 175.289062 C 317.257812 174.34375 317.96875 173.519531 318.917969 173.449219 C 319.871094 173.378906 320.695312 174.089844 320.765625 175.039062 C 320.90625 176.921875 320.976562 178.835938 320.976562 180.730469 C 320.976562 189.859375 319.390625 198.808594 316.261719 207.328125 C 316.007812 208.023438 315.347656 208.457031 314.644531 208.457031 " fill-opacity="1" fill-rule="nonzero"/><path fill="#1e1e1e" d="M 264.472656 149.898438 C 264.21875 149.898438 263.96875 149.847656 263.726562 149.730469 C 262.867188 149.324219 262.503906 148.292969 262.914062 147.4375 C 266.539062 139.882812 271.367188 133.015625 277.269531 127.019531 C 277.9375 126.34375 279.027344 126.332031 279.710938 126.996094 C 280.386719 127.664062 280.402344 128.75 279.730469 129.429688 C 274.097656 135.152344 269.488281 141.710938 266.027344 148.921875 C 265.730469 149.539062 265.113281 149.898438 264.472656 149.898438 " fill-opacity="1" fill-rule="nonzero"/><path fill="#1e1e1e" d="M 258.445312 168.238281 C 258.339844 168.238281 258.226562 168.230469 258.121094 168.210938 C 257.183594 168.03125 256.570312 167.132812 256.75 166.199219 C 257.507812 162.21875 258.589844 158.28125 259.960938 154.484375 C 260.285156 153.59375 261.273438 153.128906 262.167969 153.453125 C 263.0625 153.773438 263.527344 154.757812 263.203125 155.652344 C 261.894531 159.277344 260.863281 163.042969 260.136719 166.84375 C 259.980469 167.664062 259.257812 168.238281 258.445312 168.238281 " fill-opacity="1" fill-rule="nonzero"/><path fill="#1e1e1e" d="M 261.710938 208.460938 C 261.007812 208.460938 260.347656 208.027344 260.089844 207.332031 C 256.960938 198.808594 255.375 189.859375 255.375 180.730469 C 255.375 178.835938 255.449219 176.921875 255.585938 175.039062 C 255.65625 174.089844 256.488281 173.378906 257.433594 173.449219 C 258.382812 173.519531 259.09375 174.34375 259.023438 175.289062 C 258.890625 177.089844 258.828125 178.917969 258.828125 180.730469 C 258.828125 189.453125 260.339844 198.007812 263.328125 206.148438 C 263.65625 207.039062 263.195312 208.027344 262.300781 208.355469 C 262.105469 208.425781 261.90625 208.460938 261.710938 208.460938 " fill-opacity="1" fill-rule="nonzero"/><path fill="#1e1e1e" d="M 288.175781 143.609375 L 288.171875 143.609375 C 277.476562 143.609375 267.011719 141.621094 257.070312 137.707031 C 256.183594 137.355469 255.75 136.355469 256.101562 135.472656 C 256.449219 134.589844 257.453125 134.160156 258.335938 134.507812 C 267.875 138.261719 277.914062 140.167969 288.171875 140.167969 L 288.175781 140.167969 C 298.4375 140.167969 308.472656 138.261719 318.011719 134.507812 C 318.894531 134.15625 319.898438 134.589844 320.246094 135.472656 C 320.597656 136.355469 320.164062 137.355469 319.277344 137.707031 C 309.339844 141.621094 298.871094 143.609375 288.175781 143.609375 " fill-opacity="1" fill-rule="nonzero"/><g clip-path="url(#ec1a9a54f8)"><path fill="#1e1e1e" d="M 256.660156 234.53125 C 256.355469 234.53125 256.050781 234.453125 255.769531 234.28125 C 246.691406 228.8125 239.09375 221.078125 233.800781 211.917969 C 228.339844 202.476562 225.453125 191.691406 225.453125 180.730469 C 225.453125 146.246094 253.589844 118.191406 288.175781 118.191406 C 322.761719 118.191406 350.898438 146.246094 350.898438 180.730469 C 350.898438 191.6875 348.011719 202.472656 342.554688 211.914062 C 337.257812 221.074219 329.664062 228.808594 320.589844 234.277344 C 319.773438 234.769531 318.714844 234.507812 318.21875 233.699219 C 317.726562 232.886719 317.988281 231.828125 318.804688 231.335938 C 336.738281 220.523438 347.449219 201.601562 347.449219 180.730469 C 347.449219 148.140625 320.859375 121.632812 288.175781 121.632812 C 255.492188 121.632812 228.902344 148.140625 228.902344 180.730469 C 228.902344 201.605469 239.613281 220.527344 257.554688 231.339844 C 258.367188 231.832031 258.632812 232.886719 258.136719 233.699219 C 257.8125 234.234375 257.242188 234.53125 256.660156 234.53125 " fill-opacity="1" fill-rule="nonzero"/></g><path fill="#1e1e1e" d="M 330.105469 182.449219 L 246.246094 182.449219 C 245.292969 182.449219 244.523438 181.679688 244.523438 180.730469 C 244.523438 179.78125 245.292969 179.007812 246.246094 179.007812 L 330.105469 179.007812 C 331.058594 179.007812 331.832031 179.78125 331.832031 180.730469 C 331.832031 181.679688 331.058594 182.449219 330.105469 182.449219 " fill-opacity="1" fill-rule="nonzero"/><path fill="#1e1e1e" d="M 228.101562 220.027344 C 214.816406 220.027344 206.542969 216.972656 204.40625 211.128906 C 201.179688 202.28125 212.832031 191.617188 223.179688 184.234375 C 237.242188 174.191406 257.148438 164.25 279.234375 156.234375 C 301.316406 148.21875 322.980469 143.078125 340.222656 141.757812 C 352.910156 140.785156 368.714844 141.484375 371.945312 150.328125 C 374.648438 157.746094 366.886719 168.058594 350.082031 179.367188 C 349.292969 179.898438 348.222656 179.691406 347.691406 178.902344 C 347.160156 178.113281 347.363281 177.046875 348.15625 176.515625 C 363.074219 166.476562 370.753906 157.128906 368.703125 151.507812 C 366.816406 146.339844 356.269531 143.976562 340.488281 145.183594 C 323.550781 146.484375 302.214844 151.554688 280.414062 159.464844 C 258.617188 167.378906 239 177.164062 225.1875 187.027344 C 212.320312 196.214844 205.761719 204.785156 207.648438 209.953125 C 209.703125 215.574219 221.613281 217.8125 239.511719 215.941406 C 240.453125 215.839844 241.308594 216.527344 241.40625 217.472656 C 241.507812 218.414062 240.820312 219.261719 239.871094 219.359375 C 235.601562 219.808594 231.667969 220.027344 228.101562 220.027344 " fill-opacity="1" fill-rule="nonzero"/><path fill="#1e1e1e" d="M 348.253906 220.027344 C 344.683594 220.027344 340.753906 219.808594 336.480469 219.359375 C 335.535156 219.261719 334.84375 218.414062 334.945312 217.472656 C 335.042969 216.527344 335.890625 215.839844 336.839844 215.941406 C 354.738281 217.8125 366.648438 215.574219 368.703125 209.953125 C 370.585938 204.785156 364.03125 196.214844 351.164062 187.027344 C 337.351562 177.164062 317.734375 167.378906 295.9375 159.464844 C 274.136719 151.554688 252.800781 146.484375 235.863281 145.183594 C 220.085938 143.976562 209.535156 146.339844 207.648438 151.507812 C 205.597656 157.128906 213.28125 166.476562 228.199219 176.515625 C 228.988281 177.046875 229.195312 178.113281 228.664062 178.902344 C 228.128906 179.6875 227.058594 179.898438 226.269531 179.367188 C 209.464844 168.058594 201.703125 157.746094 204.40625 150.328125 C 207.636719 141.484375 223.4375 140.785156 236.128906 141.757812 C 253.371094 143.078125 275.035156 148.21875 297.117188 156.234375 C 319.203125 164.25 339.109375 174.191406 353.171875 184.234375 C 363.519531 191.617188 375.171875 202.28125 371.945312 211.128906 C 369.808594 216.972656 361.53125 220.027344 348.253906 220.027344 " fill-opacity="1" fill-rule="nonzero"/><g clip-path="url(#65825ef41a)"><path fill="#1e1e1e" d="M 334.875 280.011719 C 332.792969 280.011719 330.710938 279.222656 329.125 277.640625 L 304.878906 253.46875 C 304.207031 252.796875 304.207031 251.707031 304.878906 251.035156 C 305.554688 250.363281 306.644531 250.363281 307.316406 251.035156 L 331.5625 275.210938 C 333.390625 277.03125 336.359375 277.03125 338.183594 275.210938 C 339.070312 274.328125 339.554688 273.15625 339.554688 271.910156 C 339.554688 270.664062 339.070312 269.492188 338.183594 268.609375 L 313.9375 244.433594 C 313.265625 243.765625 313.265625 242.675781 313.9375 242.003906 C 314.609375 241.332031 315.703125 241.332031 316.375 242.003906 L 340.621094 266.175781 C 342.160156 267.707031 343.003906 269.746094 343.003906 271.910156 C 343.003906 274.074219 342.160156 276.109375 340.621094 277.640625 C 339.039062 279.222656 336.953125 280.011719 334.875 280.011719 " fill-opacity="1" fill-rule="nonzero"/></g><path fill="#1e1e1e" d="M 288.179688 269.1875 C 269.230469 269.1875 252.464844 257.136719 246.460938 239.199219 C 246.160156 238.296875 246.644531 237.324219 247.550781 237.023438 C 248.453125 236.722656 249.429688 237.210938 249.730469 238.109375 C 255.265625 254.640625 270.714844 265.75 288.179688 265.75 C 289.132812 265.75 289.902344 266.519531 289.902344 267.46875 C 289.902344 268.417969 289.132812 269.1875 288.179688 269.1875 " fill-opacity="1" fill-rule="nonzero"/><path fill="#1e1e1e" d="M 288.179688 194.78125 C 271.269531 194.78125 257.519531 208.496094 257.519531 225.351562 C 257.519531 242.207031 271.269531 255.921875 288.179688 255.921875 C 305.085938 255.921875 318.839844 242.207031 318.839844 225.351562 C 318.839844 208.496094 305.085938 194.78125 288.179688 194.78125 Z M 288.179688 259.359375 C 269.367188 259.359375 254.066406 244.105469 254.066406 225.351562 C 254.066406 206.597656 269.367188 191.34375 288.179688 191.34375 C 306.984375 191.34375 322.289062 206.597656 322.289062 225.351562 C 322.289062 244.105469 306.984375 259.359375 288.179688 259.359375 " fill-opacity="1" fill-rule="nonzero"/><path fill="#1e1e1e" d="M 264.378906 221.265625 C 264.242188 221.265625 264.105469 221.25 263.964844 221.214844 C 263.042969 220.988281 262.476562 220.058594 262.703125 219.136719 C 264.4375 212.054688 269.128906 205.964844 275.5625 202.433594 C 276.398438 201.972656 277.445312 202.277344 277.90625 203.109375 C 278.367188 203.941406 278.0625 204.984375 277.226562 205.445312 C 271.636719 208.515625 267.5625 213.804688 266.050781 219.953125 C 265.859375 220.742188 265.15625 221.265625 264.378906 221.265625 " fill-opacity="1" fill-rule="nonzero"/><path fill="#1e1e1e" d="M 288.179688 235.46875 C 287.226562 235.46875 286.453125 234.699219 286.453125 233.75 L 286.453125 232.925781 C 286.453125 229.003906 288.367188 225.453125 291.574219 223.425781 C 293.539062 222.1875 294.667969 219.980469 294.523438 217.660156 C 294.328125 214.539062 291.722656 211.9375 288.589844 211.742188 C 286.808594 211.636719 285.117188 212.238281 283.824219 213.449219 C 282.535156 214.660156 281.820312 216.300781 281.820312 218.070312 C 281.820312 219.019531 281.050781 219.789062 280.097656 219.789062 C 279.144531 219.789062 278.371094 219.019531 278.371094 218.070312 C 278.371094 215.382812 279.5 212.785156 281.464844 210.941406 C 283.457031 209.074219 286.066406 208.140625 288.800781 208.3125 C 293.71875 208.617188 297.660156 212.542969 297.964844 217.449219 C 298.1875 221.015625 296.445312 224.421875 293.421875 226.332031 C 291.253906 227.703125 289.902344 230.230469 289.902344 232.925781 L 289.902344 233.75 C 289.902344 234.699219 289.132812 235.46875 288.179688 235.46875 " fill-opacity="1" fill-rule="nonzero"/><path fill="#1e1e1e" d="M 288.179688 242.414062 C 287.226562 242.414062 286.453125 241.640625 286.453125 240.691406 L 286.453125 239.835938 C 286.453125 238.886719 287.226562 238.117188 288.179688 238.117188 C 289.132812 238.117188 289.902344 238.886719 289.902344 239.835938 L 289.902344 240.691406 C 289.902344 241.640625 289.132812 242.414062 288.179688 242.414062 " fill-opacity="1" fill-rule="nonzero"/><path stroke-linecap="butt" transform="matrix(1.518339, 0, 0, 1.518339, 8.984157, 80.98618)" fill="none" stroke-linejoin="miter" d="M 44.0141 51.144326 C 42.22092 50.066359 40.368568 49.10931 38.457043 48.278324 C 36.85167 47.56311 35.040481 46.891633 33.02862 46.263891 C 31.029623 45.636149 29.074362 45.322278 27.162837 45.322278 C 25.614064 45.322278 24.374017 45.564113 23.440123 46.04521 C 22.521664 46.510871 22.061149 47.313557 22.061149 48.453269 C 22.061149 49.299691 22.326138 49.991751 22.850972 50.53202 C 23.391241 51.056853 24.170773 51.545669 25.192139 51.998466 C 26.213506 52.451263 27.453553 52.888624 28.912281 53.310549 C 30.371009 53.71961 32.027835 54.223862 33.880188 54.820731 C 36.81308 55.710889 39.462973 56.696238 41.827295 57.776777 C 44.189045 58.857316 46.203478 60.133381 47.868023 61.607545 C 49.545431 63.066273 50.829215 64.838871 51.719373 66.925341 C 52.624967 69.01181 53.075192 71.551077 53.075192 74.543141 C 53.075192 78.366191 52.367696 81.582081 50.952705 84.193384 C 49.553149 86.791823 47.700797 88.870574 45.393074 90.43221 C 43.10336 91.97841 40.504921 93.094967 37.602902 93.781881 C 34.713747 94.466223 31.801437 94.810966 28.868545 94.810966 C 26.535095 94.810966 24.142473 94.628304 21.690678 94.262979 C 19.238884 93.91309 16.802526 93.408838 14.379031 92.752797 C 11.973545 92.096755 9.645241 91.322369 7.396691 90.43221 C 5.150713 89.526616 3.071962 88.505249 1.160437 87.36811 L 8.688192 72.024456 C 10.790098 73.351975 12.971757 74.519987 15.233171 75.525917 C 17.144696 76.431512 19.31092 77.241916 21.734415 77.95713 C 24.155337 78.672344 26.622567 79.029951 29.130962 79.029951 C 31.042487 79.029951 32.370006 78.77268 33.116092 78.263283 C 33.875042 77.751313 34.253231 77.082408 34.253231 76.248849 C 34.253231 75.358691 33.875042 74.599741 33.116092 73.971999 C 32.370006 73.34683 31.343494 72.791124 30.028838 72.310027 C 28.716755 71.82893 27.206573 71.347833 25.498292 70.864163 C 23.805448 70.383066 22.004549 69.814496 20.093024 69.158455 C 17.275905 68.209124 14.847265 67.180039 12.804531 66.071201 C 10.774661 64.962362 9.104971 63.706878 7.792888 62.307323 C 6.478232 60.907768 5.50832 59.307541 4.880578 57.51436 C 4.252837 55.718607 3.938966 53.655292 3.938966 51.31927 C 3.938966 47.802373 4.582144 44.702255 5.865927 42.018916 C 7.14971 39.317568 8.894009 37.071591 11.09625 35.275838 C 13.313928 33.482658 15.845477 32.124266 18.690896 31.205808 C 21.536316 30.271913 24.543816 29.803679 27.708252 29.803679 C 30.028838 29.803679 32.29797 30.030078 34.515648 30.482875 C 36.733325 30.935673 38.871249 31.504242 40.929419 32.191156 C 42.987588 32.875498 44.911977 33.62673 46.70773 34.444852 C 48.50091 35.247538 50.114001 36.006488 51.544428 36.721702 Z M 117.964134 78.767534 L 117.964134 94.000562 L 72.61494 94.000562 L 72.61494 30.351667 L 117.176884 30.351667 L 117.176884 45.584695 L 90.101663 45.584695 L 90.101663 54.558314 L 113.214908 54.558314 L 113.214908 68.721094 L 90.101663 68.721094 L 90.101663 78.767534 Z M 117.964134 78.767534 " stroke="#333333" stroke-width="2.241323" stroke-opacity="1" stroke-miterlimit="4"/><g fill="#333333" fill-opacity="1"><g transform="translate(14.541661, 270.286521)"><g><path d="M 3.628906 0 L 19.148438 0 L 19.148438 -2.917969 L 6.761719 -2.917969 L 6.761719 -11.246094 L 17.867188 -11.246094 L 17.867188 -14.132812 L 6.761719 -14.132812 L 6.761719 -21.996094 L 18.757812 -21.996094 L 18.757812 -24.917969 L 3.628906 -24.917969 Z M 3.628906 0 "/></g></g></g><g fill="#333333" fill-opacity="1"><g transform="translate(52.121888, 270.286521)"><g><path d="M 1.351562 0 L 5.089844 0 L 12.246094 -10.359375 L 14.308594 -7.367188 L 19.398438 0 L 23.101562 0 L 14.167969 -12.777344 L 22.675781 -24.917969 L 19.007812 -24.917969 L 14.34375 -18.222656 L 12.246094 -15.09375 L 5.445312 -24.917969 L 1.707031 -24.917969 L 10.25 -12.742188 Z M 1.351562 0 "/></g></g></g><g fill="#333333" fill-opacity="1"><g transform="translate(92.690756, 270.286521)"><g><path d="M 3.628906 0 L 6.761719 0 L 6.761719 -8.1875 L 12.066406 -8.1875 C 17.691406 -8.1875 21.320312 -11.425781 21.320312 -16.550781 C 21.320312 -21.640625 17.691406 -24.917969 12.066406 -24.917969 L 3.628906 -24.917969 Z M 6.761719 -11.105469 L 6.761719 -21.925781 L 11.996094 -21.925781 C 16.019531 -21.925781 18.117188 -20.074219 18.117188 -16.515625 C 18.117188 -12.957031 16.019531 -11.105469 11.996094 -11.105469 Z M 6.761719 -11.105469 "/></g></g></g><g fill="#333333" fill-opacity="1"><g transform="translate(131.551829, 270.286521)"><g><path d="M 3.628906 0 L 19.148438 0 L 19.148438 -2.917969 L 6.761719 -2.917969 L 6.761719 -11.246094 L 17.867188 -11.246094 L 17.867188 -14.132812 L 6.761719 -14.132812 L 6.761719 -21.996094 L 18.757812 -21.996094 L 18.757812 -24.917969 L 3.628906 -24.917969 Z M 3.628906 0 "/></g></g></g><g fill="#333333" fill-opacity="1"><g transform="translate(169.132056, 270.286521)"><g><path d="M 3.628906 0 L 6.761719 0 L 6.761719 -8.933594 L 12.246094 -8.933594 L 18.332031 0 L 22.105469 0 L 15.839844 -9.253906 C 19.46875 -10.144531 21.710938 -12.886719 21.710938 -16.90625 C 21.710938 -21.855469 18.296875 -24.917969 13.132812 -24.917969 L 3.628906 -24.917969 Z M 6.761719 -11.925781 L 6.761719 -21.925781 L 12.777344 -21.925781 C 16.410156 -21.925781 18.507812 -20.074219 18.507812 -16.90625 C 18.507812 -13.738281 16.410156 -11.925781 12.777344 -11.925781 Z M 6.761719 -11.925781 "/></g></g></g><g fill="#333333" fill-opacity="1"><g transform="translate(209.487443, 270.286521)"><g><path d="M 9.644531 0 L 12.777344 0 L 12.777344 -21.925781 L 21.179688 -21.925781 L 21.179688 -24.917969 L 1.210938 -24.917969 L 1.210938 -21.925781 L 9.644531 -21.925781 Z M 9.644531 0 "/></g></g></g></svg>