<svg xmlns="http://www.w3.org/2000/svg" xmlns:xlink="http://www.w3.org/1999/xlink" width="500" zoomAndPan="magnify" viewBox="0 0 375 374.999991" height="500" preserveAspectRatio="xMidYMid meet" version="1.0"><defs><g/><clipPath id="9e33c68d66"><path d="M 79 0 L 297 0 L 297 225 L 79 225 Z M 79 0 " clip-rule="nonzero"/></clipPath><clipPath id="e5840ddea6"><path d="M 204.160156 152.324219 C 218.222656 152.324219 224.46875 164.039062 233.84375 173.414062 C 238.53125 178.101562 247.125 178.101562 251.808594 173.414062 L 274.464844 150.761719 C 279.148438 146.074219 279.148438 137.480469 274.464844 132.792969 L 251.808594 110.140625 C 243.21875 101.546875 233.0625 96.082031 240.09375 90.613281 C 243.21875 88.269531 245.5625 86.707031 251.027344 86.707031 C 259.621094 86.707031 262.746094 93.738281 268.996094 99.203125 C 272.121094 102.328125 276.808594 102.328125 279.929688 99.203125 L 293.992188 85.144531 C 297.117188 82.019531 297.117188 77.332031 293.992188 74.207031 L 279.929688 60.148438 C 276.808594 57.023438 272.121094 57.023438 268.996094 60.148438 C 263.527344 65.617188 258.839844 73.425781 251.027344 73.425781 C 243.21875 73.425781 238.53125 65.617188 233.0625 60.148438 C 229.9375 57.023438 225.25 57.023438 222.125 60.148438 L 208.066406 74.207031 C 204.941406 77.332031 204.941406 82.019531 208.066406 85.144531 C 219.785156 96.863281 239.3125 103.890625 229.9375 114.828125 C 222.90625 123.421875 215.097656 132.792969 204.160156 132.792969 C 190.882812 132.792969 183.070312 119.515625 173.695312 110.140625 C 169.007812 105.453125 160.417969 105.453125 155.730469 110.140625 L 133.078125 132.792969 C 128.390625 137.480469 128.390625 146.074219 133.078125 150.761719 L 155.730469 173.414062 C 160.417969 178.101562 169.007812 178.101562 173.695312 173.414062 C 183.851562 163.257812 189.320312 152.324219 204.160156 152.324219 Z M 180.726562 64.054688 L 224.46875 107.796875 C 219.003906 114.828125 211.191406 123.421875 204.160156 123.421875 C 194.785156 123.421875 185.414062 109.359375 179.164062 103.109375 C 171.351562 95.300781 158.074219 95.300781 149.480469 103.109375 L 126.828125 125.765625 C 119.015625 133.574219 119.015625 146.855469 126.828125 155.445312 L 149.480469 178.101562 C 157.292969 185.910156 170.570312 185.910156 179.164062 178.101562 C 186.195312 171.070312 193.222656 159.351562 204.160156 159.351562 C 212.753906 159.351562 219.003906 167.164062 224.46875 174.195312 L 180.726562 217.9375 C 171.351562 227.3125 156.511719 227.3125 147.136719 217.9375 L 86.988281 157.789062 C 77.617188 148.417969 77.617188 133.574219 86.988281 124.203125 L 147.136719 64.054688 C 156.511719 54.679688 171.351562 54.679688 180.726562 64.054688 Z M 260.402344 17.964844 L 268.996094 26.558594 C 271.339844 28.902344 275.246094 28.902344 277.589844 26.558594 L 286.179688 17.964844 C 288.523438 15.621094 288.523438 11.71875 286.179688 9.375 L 277.589844 0.78125 C 275.246094 -1.5625 271.339844 -1.5625 268.996094 0.78125 L 260.402344 9.375 C 258.058594 11.71875 258.058594 15.621094 260.402344 17.964844 Z M 260.402344 17.964844 " clip-rule="evenodd"/></clipPath><linearGradient x1="0.115" gradientTransform="matrix(78.114187, 0, 0, 78.114187, 79.177898, -0)" y1="3.025" x2="2.965" gradientUnits="userSpaceOnUse" y2="0.175" id="0964a3b6c0"><stop stop-opacity="1" stop-color="rgb(0%, 39.199829%, 60.398865%)" offset="0"/><stop stop-opacity="1" stop-color="rgb(0%, 39.199829%, 60.398865%)" offset="0.125"/><stop stop-opacity="1" stop-color="rgb(0%, 39.199829%, 60.398865%)" offset="0.15625"/><stop stop-opacity="1" stop-color="rgb(0%, 39.280701%, 60.450745%)" offset="0.171875"/><stop stop-opacity="1" stop-color="rgb(0%, 39.732361%, 60.746765%)" offset="0.175781"/><stop stop-opacity="1" stop-color="rgb(0%, 40.104675%, 60.98938%)" offset="0.179688"/><stop stop-opacity="1" stop-color="rgb(0%, 40.47699%, 61.230469%)" offset="0.183594"/><stop stop-opacity="1" stop-color="rgb(0%, 40.849304%, 61.473083%)" offset="0.1875"/><stop stop-opacity="1" stop-color="rgb(0%, 41.220093%, 61.715698%)" offset="0.191406"/><stop stop-opacity="1" stop-color="rgb(0%, 41.592407%, 61.958313%)" offset="0.195312"/><stop stop-opacity="1" stop-color="rgb(0%, 41.964722%, 62.199402%)" offset="0.199219"/><stop stop-opacity="1" stop-color="rgb(0%, 42.337036%, 62.442017%)" offset="0.203125"/><stop stop-opacity="1" stop-color="rgb(0%, 42.707825%, 62.684631%)" offset="0.207031"/><stop stop-opacity="1" stop-color="rgb(0%, 43.080139%, 62.927246%)" offset="0.210938"/><stop stop-opacity="1" stop-color="rgb(0%, 43.450928%, 63.168335%)" offset="0.214844"/><stop stop-opacity="1" stop-color="rgb(0%, 43.823242%, 63.41095%)" offset="0.21875"/><stop stop-opacity="1" stop-color="rgb(0%, 44.195557%, 63.653564%)" offset="0.222656"/><stop stop-opacity="1" stop-color="rgb(0%, 44.567871%, 63.896179%)" offset="0.226562"/><stop stop-opacity="1" stop-color="rgb(0%, 44.93866%, 64.137268%)" offset="0.230469"/><stop stop-opacity="1" stop-color="rgb(0%, 45.310974%, 64.379883%)" offset="0.234375"/><stop stop-opacity="1" stop-color="rgb(0%, 45.683289%, 64.622498%)" offset="0.238281"/><stop stop-opacity="1" stop-color="rgb(0%, 46.055603%, 64.865112%)" offset="0.242187"/><stop stop-opacity="1" stop-color="rgb(0%, 46.426392%, 65.106201%)" offset="0.246094"/><stop stop-opacity="1" stop-color="rgb(0%, 46.798706%, 65.348816%)" offset="0.25"/><stop stop-opacity="1" stop-color="rgb(0%, 47.171021%, 65.591431%)" offset="0.253906"/><stop stop-opacity="1" stop-color="rgb(0%, 47.543335%, 65.834045%)" offset="0.257812"/><stop stop-opacity="1" stop-color="rgb(0%, 47.914124%, 66.075134%)" offset="0.261719"/><stop stop-opacity="1" stop-color="rgb(0%, 48.286438%, 66.317749%)" offset="0.265625"/><stop stop-opacity="1" stop-color="rgb(0%, 48.658752%, 66.560364%)" offset="0.269531"/><stop stop-opacity="1" stop-color="rgb(0%, 49.031067%, 66.802979%)" offset="0.273437"/><stop stop-opacity="1" stop-color="rgb(0%, 49.401855%, 67.044067%)" offset="0.277344"/><stop stop-opacity="1" stop-color="rgb(0%, 49.77417%, 67.286682%)" offset="0.28125"/><stop stop-opacity="1" stop-color="rgb(0%, 50.146484%, 67.529297%)" offset="0.285156"/><stop stop-opacity="1" stop-color="rgb(0%, 50.518799%, 67.771912%)" offset="0.289062"/><stop stop-opacity="1" stop-color="rgb(0%, 50.889587%, 68.013%)" offset="0.292969"/><stop stop-opacity="1" stop-color="rgb(0%, 51.261902%, 68.255615%)" offset="0.296875"/><stop stop-opacity="1" stop-color="rgb(0%, 51.634216%, 68.49823%)" offset="0.300781"/><stop stop-opacity="1" stop-color="rgb(0%, 52.006531%, 68.740845%)" offset="0.304687"/><stop stop-opacity="1" stop-color="rgb(0%, 52.377319%, 68.981934%)" offset="0.308594"/><stop stop-opacity="1" stop-color="rgb(0%, 52.749634%, 69.224548%)" offset="0.3125"/><stop stop-opacity="1" stop-color="rgb(0%, 53.121948%, 69.467163%)" offset="0.316406"/><stop stop-opacity="1" stop-color="rgb(0%, 53.494263%, 69.709778%)" offset="0.320312"/><stop stop-opacity="1" stop-color="rgb(0%, 53.865051%, 69.950867%)" offset="0.324219"/><stop stop-opacity="1" stop-color="rgb(0%, 54.237366%, 70.193481%)" offset="0.328125"/><stop stop-opacity="1" stop-color="rgb(0%, 54.60968%, 70.436096%)" offset="0.332031"/><stop stop-opacity="1" stop-color="rgb(0%, 54.981995%, 70.678711%)" offset="0.335938"/><stop stop-opacity="1" stop-color="rgb(0%, 55.352783%, 70.9198%)" offset="0.339844"/><stop stop-opacity="1" stop-color="rgb(0%, 55.725098%, 71.162415%)" offset="0.34375"/><stop stop-opacity="1" stop-color="rgb(0%, 56.095886%, 71.405029%)" offset="0.347656"/><stop stop-opacity="1" stop-color="rgb(0%, 56.468201%, 71.647644%)" offset="0.351562"/><stop stop-opacity="1" stop-color="rgb(0%, 56.840515%, 71.888733%)" offset="0.355469"/><stop stop-opacity="1" stop-color="rgb(0%, 57.21283%, 72.131348%)" offset="0.359375"/><stop stop-opacity="1" stop-color="rgb(0%, 57.583618%, 72.373962%)" offset="0.363281"/><stop stop-opacity="1" stop-color="rgb(0%, 57.955933%, 72.616577%)" offset="0.367188"/><stop stop-opacity="1" stop-color="rgb(0%, 58.328247%, 72.857666%)" offset="0.371094"/><stop stop-opacity="1" stop-color="rgb(0%, 58.700562%, 73.100281%)" offset="0.375"/><stop stop-opacity="1" stop-color="rgb(0%, 59.07135%, 73.342896%)" offset="0.378906"/><stop stop-opacity="1" stop-color="rgb(0%, 59.443665%, 73.58551%)" offset="0.382813"/><stop stop-opacity="1" stop-color="rgb(0%, 59.815979%, 73.826599%)" offset="0.386719"/><stop stop-opacity="1" stop-color="rgb(0%, 60.188293%, 74.069214%)" offset="0.390625"/><stop stop-opacity="1" stop-color="rgb(0%, 60.559082%, 74.311829%)" offset="0.394531"/><stop stop-opacity="1" stop-color="rgb(0%, 60.931396%, 74.554443%)" offset="0.398437"/><stop stop-opacity="1" stop-color="rgb(0%, 61.303711%, 74.795532%)" offset="0.402344"/><stop stop-opacity="1" stop-color="rgb(0%, 61.676025%, 75.038147%)" offset="0.40625"/><stop stop-opacity="1" stop-color="rgb(0%, 62.046814%, 75.280762%)" offset="0.410156"/><stop stop-opacity="1" stop-color="rgb(0%, 62.419128%, 75.523376%)" offset="0.414062"/><stop stop-opacity="1" stop-color="rgb(0%, 62.791443%, 75.764465%)" offset="0.417969"/><stop stop-opacity="1" stop-color="rgb(0%, 63.163757%, 76.00708%)" offset="0.421875"/><stop stop-opacity="1" stop-color="rgb(0%, 63.534546%, 76.249695%)" offset="0.425781"/><stop stop-opacity="1" stop-color="rgb(0%, 63.90686%, 76.49231%)" offset="0.429688"/><stop stop-opacity="1" stop-color="rgb(0%, 64.279175%, 76.733398%)" offset="0.433594"/><stop stop-opacity="1" stop-color="rgb(0%, 64.651489%, 76.976013%)" offset="0.4375"/><stop stop-opacity="1" stop-color="rgb(0%, 65.022278%, 77.218628%)" offset="0.441406"/><stop stop-opacity="1" stop-color="rgb(0%, 65.394592%, 77.461243%)" offset="0.445312"/><stop stop-opacity="1" stop-color="rgb(0%, 65.766907%, 77.702332%)" offset="0.449219"/><stop stop-opacity="1" stop-color="rgb(0%, 66.139221%, 77.944946%)" offset="0.453125"/><stop stop-opacity="1" stop-color="rgb(0%, 66.51001%, 78.187561%)" offset="0.457031"/><stop stop-opacity="1" stop-color="rgb(0%, 66.882324%, 78.430176%)" offset="0.460937"/><stop stop-opacity="1" stop-color="rgb(0%, 67.253113%, 78.671265%)" offset="0.464844"/><stop stop-opacity="1" stop-color="rgb(0%, 67.625427%, 78.913879%)" offset="0.46875"/><stop stop-opacity="1" stop-color="rgb(0%, 67.997742%, 79.156494%)" offset="0.472656"/><stop stop-opacity="1" stop-color="rgb(0%, 68.370056%, 79.399109%)" offset="0.476562"/><stop stop-opacity="1" stop-color="rgb(0%, 68.740845%, 79.640198%)" offset="0.480469"/><stop stop-opacity="1" stop-color="rgb(0%, 69.113159%, 79.882812%)" offset="0.484375"/><stop stop-opacity="1" stop-color="rgb(0%, 69.485474%, 80.125427%)" offset="0.488281"/><stop stop-opacity="1" stop-color="rgb(0%, 69.857788%, 80.368042%)" offset="0.492187"/><stop stop-opacity="1" stop-color="rgb(0%, 70.228577%, 80.609131%)" offset="0.496094"/><stop stop-opacity="1" stop-color="rgb(0%, 70.600891%, 80.851746%)" offset="0.5"/><stop stop-opacity="1" stop-color="rgb(0%, 70.973206%, 81.09436%)" offset="0.503906"/><stop stop-opacity="1" stop-color="rgb(0%, 71.34552%, 81.336975%)" offset="0.507812"/><stop stop-opacity="1" stop-color="rgb(0%, 71.716309%, 81.578064%)" offset="0.511719"/><stop stop-opacity="1" stop-color="rgb(0%, 72.088623%, 81.820679%)" offset="0.515625"/><stop stop-opacity="1" stop-color="rgb(0%, 72.460938%, 82.063293%)" offset="0.519531"/><stop stop-opacity="1" stop-color="rgb(0%, 72.833252%, 82.305908%)" offset="0.523438"/><stop stop-opacity="1" stop-color="rgb(0%, 73.204041%, 82.546997%)" offset="0.527344"/><stop stop-opacity="1" stop-color="rgb(0%, 73.576355%, 82.789612%)" offset="0.53125"/><stop stop-opacity="1" stop-color="rgb(0%, 73.948669%, 83.032227%)" offset="0.535156"/><stop stop-opacity="1" stop-color="rgb(0%, 74.320984%, 83.274841%)" offset="0.539062"/><stop stop-opacity="1" stop-color="rgb(0%, 74.691772%, 83.51593%)" offset="0.542969"/><stop stop-opacity="1" stop-color="rgb(0%, 75.064087%, 83.758545%)" offset="0.546875"/><stop stop-opacity="1" stop-color="rgb(0%, 75.436401%, 84.00116%)" offset="0.550781"/><stop stop-opacity="1" stop-color="rgb(0%, 75.808716%, 84.243774%)" offset="0.554687"/><stop stop-opacity="1" stop-color="rgb(0%, 76.179504%, 84.484863%)" offset="0.558594"/><stop stop-opacity="1" stop-color="rgb(0%, 76.551819%, 84.727478%)" offset="0.5625"/><stop stop-opacity="1" stop-color="rgb(0%, 76.924133%, 84.970093%)" offset="0.566406"/><stop stop-opacity="1" stop-color="rgb(0%, 77.296448%, 85.212708%)" offset="0.570312"/><stop stop-opacity="1" stop-color="rgb(0%, 77.667236%, 85.453796%)" offset="0.574219"/><stop stop-opacity="1" stop-color="rgb(0%, 78.039551%, 85.696411%)" offset="0.578125"/><stop stop-opacity="1" stop-color="rgb(0%, 78.411865%, 85.939026%)" offset="0.582031"/><stop stop-opacity="1" stop-color="rgb(0%, 78.78418%, 86.181641%)" offset="0.585938"/><stop stop-opacity="1" stop-color="rgb(0%, 79.154968%, 86.422729%)" offset="0.589844"/><stop stop-opacity="1" stop-color="rgb(0%, 79.527283%, 86.665344%)" offset="0.59375"/><stop stop-opacity="1" stop-color="rgb(0%, 79.898071%, 86.907959%)" offset="0.597656"/><stop stop-opacity="1" stop-color="rgb(0%, 80.270386%, 87.150574%)" offset="0.601562"/><stop stop-opacity="1" stop-color="rgb(0%, 80.6427%, 87.391663%)" offset="0.605469"/><stop stop-opacity="1" stop-color="rgb(0%, 81.015015%, 87.634277%)" offset="0.609375"/><stop stop-opacity="1" stop-color="rgb(0%, 81.385803%, 87.876892%)" offset="0.613281"/><stop stop-opacity="1" stop-color="rgb(0%, 81.758118%, 88.119507%)" offset="0.617188"/><stop stop-opacity="1" stop-color="rgb(0%, 82.130432%, 88.360596%)" offset="0.621094"/><stop stop-opacity="1" stop-color="rgb(0%, 82.502747%, 88.60321%)" offset="0.625"/><stop stop-opacity="1" stop-color="rgb(0%, 82.873535%, 88.845825%)" offset="0.628906"/><stop stop-opacity="1" stop-color="rgb(0%, 83.24585%, 89.08844%)" offset="0.632812"/><stop stop-opacity="1" stop-color="rgb(0%, 83.618164%, 89.329529%)" offset="0.636719"/><stop stop-opacity="1" stop-color="rgb(0%, 83.990479%, 89.572144%)" offset="0.640625"/><stop stop-opacity="1" stop-color="rgb(0%, 84.361267%, 89.814758%)" offset="0.644531"/><stop stop-opacity="1" stop-color="rgb(0%, 84.733582%, 90.057373%)" offset="0.648438"/><stop stop-opacity="1" stop-color="rgb(0%, 85.105896%, 90.298462%)" offset="0.652344"/><stop stop-opacity="1" stop-color="rgb(0%, 85.47821%, 90.541077%)" offset="0.65625"/><stop stop-opacity="1" stop-color="rgb(0%, 85.848999%, 90.783691%)" offset="0.660156"/><stop stop-opacity="1" stop-color="rgb(0%, 86.221313%, 91.026306%)" offset="0.664062"/><stop stop-opacity="1" stop-color="rgb(0%, 86.593628%, 91.267395%)" offset="0.667969"/><stop stop-opacity="1" stop-color="rgb(0%, 86.965942%, 91.51001%)" offset="0.671875"/><stop stop-opacity="1" stop-color="rgb(0%, 87.336731%, 91.752625%)" offset="0.675781"/><stop stop-opacity="1" stop-color="rgb(0%, 87.709045%, 91.995239%)" offset="0.679688"/><stop stop-opacity="1" stop-color="rgb(0%, 88.08136%, 92.236328%)" offset="0.683594"/><stop stop-opacity="1" stop-color="rgb(0%, 88.453674%, 92.478943%)" offset="0.6875"/><stop stop-opacity="1" stop-color="rgb(0%, 88.824463%, 92.721558%)" offset="0.691406"/><stop stop-opacity="1" stop-color="rgb(0%, 89.196777%, 92.964172%)" offset="0.695312"/><stop stop-opacity="1" stop-color="rgb(0%, 89.569092%, 93.205261%)" offset="0.699219"/><stop stop-opacity="1" stop-color="rgb(0%, 89.941406%, 93.447876%)" offset="0.703125"/><stop stop-opacity="1" stop-color="rgb(0%, 90.312195%, 93.690491%)" offset="0.707031"/><stop stop-opacity="1" stop-color="rgb(0%, 90.684509%, 93.933105%)" offset="0.710938"/><stop stop-opacity="1" stop-color="rgb(0%, 91.055298%, 94.174194%)" offset="0.714844"/><stop stop-opacity="1" stop-color="rgb(0%, 91.427612%, 94.416809%)" offset="0.71875"/><stop stop-opacity="1" stop-color="rgb(0%, 91.799927%, 94.659424%)" offset="0.722656"/><stop stop-opacity="1" stop-color="rgb(0%, 92.172241%, 94.902039%)" offset="0.726562"/><stop stop-opacity="1" stop-color="rgb(0%, 92.54303%, 95.143127%)" offset="0.730469"/><stop stop-opacity="1" stop-color="rgb(0%, 92.915344%, 95.385742%)" offset="0.734375"/><stop stop-opacity="1" stop-color="rgb(0%, 93.287659%, 95.628357%)" offset="0.738281"/><stop stop-opacity="1" stop-color="rgb(0%, 93.659973%, 95.870972%)" offset="0.742188"/><stop stop-opacity="1" stop-color="rgb(0%, 94.030762%, 96.112061%)" offset="0.746094"/><stop stop-opacity="1" stop-color="rgb(0%, 94.403076%, 96.354675%)" offset="0.75"/><stop stop-opacity="1" stop-color="rgb(0%, 94.775391%, 96.59729%)" offset="0.753906"/><stop stop-opacity="1" stop-color="rgb(0%, 95.147705%, 96.839905%)" offset="0.757813"/><stop stop-opacity="1" stop-color="rgb(0%, 95.518494%, 97.080994%)" offset="0.761719"/><stop stop-opacity="1" stop-color="rgb(0%, 95.890808%, 97.323608%)" offset="0.765625"/><stop stop-opacity="1" stop-color="rgb(0%, 96.263123%, 97.566223%)" offset="0.769531"/><stop stop-opacity="1" stop-color="rgb(0%, 96.635437%, 97.808838%)" offset="0.773438"/><stop stop-opacity="1" stop-color="rgb(0%, 97.006226%, 98.049927%)" offset="0.777344"/><stop stop-opacity="1" stop-color="rgb(0%, 97.37854%, 98.292542%)" offset="0.78125"/><stop stop-opacity="1" stop-color="rgb(0%, 97.750854%, 98.535156%)" offset="0.785156"/><stop stop-opacity="1" stop-color="rgb(0%, 98.123169%, 98.777771%)" offset="0.789062"/><stop stop-opacity="1" stop-color="rgb(0%, 98.493958%, 99.01886%)" offset="0.792969"/><stop stop-opacity="1" stop-color="rgb(0%, 98.866272%, 99.261475%)" offset="0.796875"/><stop stop-opacity="1" stop-color="rgb(0%, 99.238586%, 99.504089%)" offset="0.800781"/><stop stop-opacity="1" stop-color="rgb(0%, 99.610901%, 99.746704%)" offset="0.804688"/><stop stop-opacity="1" stop-color="rgb(0%, 99.804688%, 99.873352%)" offset="0.8125"/><stop stop-opacity="1" stop-color="rgb(0%, 100%, 100%)" offset="0.875"/><stop stop-opacity="1" stop-color="rgb(0%, 100%, 100%)" offset="1"/></linearGradient></defs><g clip-path="url(#9e33c68d66)"><g clip-path="url(#e5840ddea6)"><path fill="url(#0964a3b6c0)" d="M 77.617188 0 L 77.617188 225.75 L 297.117188 225.75 L 297.117188 0 Z M 77.617188 0 " fill-rule="nonzero"/></g></g><g fill="#000000" fill-opacity="1"><g transform="translate(33.53315, 321.027893)"><g><path d="M 18.625 0.625 C 13.71875 0.625 9.789062 -0.910156 6.84375 -3.984375 C 3.894531 -7.066406 2.421875 -11.296875 2.421875 -16.671875 L 2.421875 -47.671875 C 2.421875 -54.347656 3.75 -59.382812 6.40625 -62.78125 C 9.070312 -66.175781 13.25 -67.875 18.9375 -67.875 C 23.894531 -67.875 27.890625 -66.515625 30.921875 -63.796875 C 33.953125 -61.085938 35.46875 -57.175781 35.46875 -52.0625 L 35.46875 -40.46875 L 22.078125 -40.46875 L 22.078125 -50.40625 C 22.078125 -52.34375 21.84375 -53.675781 21.375 -54.40625 C 20.90625 -55.132812 20.09375 -55.5 18.9375 -55.5 C 17.738281 -55.5 16.914062 -55.082031 16.46875 -54.25 C 16.03125 -53.414062 15.8125 -52.1875 15.8125 -50.5625 L 15.8125 -16.828125 C 15.8125 -15.054688 16.070312 -13.765625 16.59375 -12.953125 C 17.113281 -12.140625 17.894531 -11.734375 18.9375 -11.734375 C 21.03125 -11.734375 22.078125 -13.429688 22.078125 -16.828125 L 22.078125 -28.96875 L 35.625 -28.96875 L 35.625 -16.28125 C 35.625 -5.007812 29.957031 0.625 18.625 0.625 Z M 18.625 0.625 "/></g></g></g><g fill="#000000" fill-opacity="1"><g transform="translate(79.714339, 321.027893)"><g><path d="M 19.015625 0.625 C 13.585938 0.625 9.460938 -1.03125 6.640625 -4.34375 C 3.828125 -7.65625 2.421875 -12.3125 2.421875 -18.3125 L 2.421875 -50.328125 C 2.421875 -56.128906 3.828125 -60.503906 6.640625 -63.453125 C 9.460938 -66.398438 13.585938 -67.875 19.015625 -67.875 C 24.441406 -67.875 28.566406 -66.398438 31.390625 -63.453125 C 34.210938 -60.503906 35.625 -56.128906 35.625 -50.328125 L 35.625 -18.3125 C 35.625 -12.257812 34.210938 -7.585938 31.390625 -4.296875 C 28.566406 -1.015625 24.441406 0.625 19.015625 0.625 Z M 19.015625 -11.734375 C 20.222656 -11.734375 21.035156 -12.253906 21.453125 -13.296875 C 21.867188 -14.347656 22.078125 -15.8125 22.078125 -17.6875 L 22.078125 -50.5625 C 22.078125 -52.03125 21.878906 -53.21875 21.484375 -54.125 C 21.097656 -55.039062 20.300781 -55.5 19.09375 -55.5 C 16.851562 -55.5 15.734375 -53.800781 15.734375 -50.40625 L 15.734375 -17.609375 C 15.734375 -15.679688 15.96875 -14.21875 16.4375 -13.21875 C 16.90625 -12.226562 17.765625 -11.734375 19.015625 -11.734375 Z M 19.015625 -11.734375 "/></g></g></g><g fill="#000000" fill-opacity="1"><g transform="translate(126.834777, 321.027893)"><g><path d="M 2.96875 0 L 2.96875 -67.25 L 16.828125 -67.25 L 23.015625 -35.0625 L 23.015625 -67.25 L 36.015625 -67.25 L 36.015625 0 L 22.859375 0 L 16.125 -33.65625 L 16.125 0 Z M 2.96875 0 "/></g></g></g><g fill="#000000" fill-opacity="1"><g transform="translate(174.894478, 321.027893)"><g><path d="M 2.96875 0 L 2.96875 -67.25 L 16.828125 -67.25 L 23.015625 -35.0625 L 23.015625 -67.25 L 36.015625 -67.25 L 36.015625 0 L 22.859375 0 L 16.125 -33.65625 L 16.125 0 Z M 2.96875 0 "/></g></g></g><g fill="#000000" fill-opacity="1"><g transform="translate(222.954188, 321.027893)"><g><path d="M 2.96875 0 L 2.96875 -67.25 L 29.90625 -67.25 L 29.90625 -54.25 L 16.671875 -54.25 L 16.671875 -41.171875 L 29.359375 -41.171875 L 29.359375 -28.5 L 16.671875 -28.5 L 16.671875 -13.078125 L 30.765625 -13.078125 L 30.765625 0 Z M 2.96875 0 "/></g></g></g><g fill="#000000" fill-opacity="1"><g transform="translate(264.282559, 321.027893)"><g><path d="M 18.625 0.625 C 13.71875 0.625 9.789062 -0.910156 6.84375 -3.984375 C 3.894531 -7.066406 2.421875 -11.296875 2.421875 -16.671875 L 2.421875 -47.671875 C 2.421875 -54.347656 3.75 -59.382812 6.40625 -62.78125 C 9.070312 -66.175781 13.25 -67.875 18.9375 -67.875 C 23.894531 -67.875 27.890625 -66.515625 30.921875 -63.796875 C 33.953125 -61.085938 35.46875 -57.175781 35.46875 -52.0625 L 35.46875 -40.46875 L 22.078125 -40.46875 L 22.078125 -50.40625 C 22.078125 -52.34375 21.84375 -53.675781 21.375 -54.40625 C 20.90625 -55.132812 20.09375 -55.5 18.9375 -55.5 C 17.738281 -55.5 16.914062 -55.082031 16.46875 -54.25 C 16.03125 -53.414062 15.8125 -52.1875 15.8125 -50.5625 L 15.8125 -16.828125 C 15.8125 -15.054688 16.070312 -13.765625 16.59375 -12.953125 C 17.113281 -12.140625 17.894531 -11.734375 18.9375 -11.734375 C 21.03125 -11.734375 22.078125 -13.429688 22.078125 -16.828125 L 22.078125 -28.96875 L 35.625 -28.96875 L 35.625 -16.28125 C 35.625 -5.007812 29.957031 0.625 18.625 0.625 Z M 18.625 0.625 "/></g></g></g><g fill="#000000" fill-opacity="1"><g transform="translate(310.463754, 321.027893)"><g><path d="M 8.765625 0 L 8.765625 -54.328125 L 0.78125 -54.328125 L 0.78125 -67.25 L 30.21875 -67.25 L 30.21875 -54.328125 L 22.234375 -54.328125 L 22.234375 0 Z M 8.765625 0 "/></g></g></g><g fill="#00ffff" fill-opacity="1"><g transform="translate(86.188182, 368.105765)"><g><path d="M 4.859375 -12.671875 L 0.328125 -12.671875 L 0.328125 -15.484375 L 12.734375 -15.484375 L 12.734375 -12.671875 L 8.21875 -12.671875 L 8.21875 0 L 4.859375 0 Z M 4.859375 -12.671875 "/></g></g></g><g fill="#00ffff" fill-opacity="1"><g transform="translate(104.925574, 368.105765)"><g><path d="M 1.15625 -15.484375 L 11.890625 -15.484375 L 11.890625 -12.671875 L 4.515625 -12.671875 L 4.515625 -9.078125 L 9.953125 -9.078125 L 9.953125 -6.375 L 4.515625 -6.375 L 4.515625 -2.8125 L 11.890625 -2.8125 L 11.890625 0 L 1.15625 0 Z M 1.15625 -15.484375 "/></g></g></g><g fill="#00ffff" fill-opacity="1"><g transform="translate(122.976542, 368.105765)"><g><path d="M 9.078125 0.328125 C 7.429688 0.328125 5.972656 0 4.703125 -0.65625 C 3.429688 -1.3125 2.445312 -2.242188 1.75 -3.453125 C 1.050781 -4.660156 0.703125 -6.085938 0.703125 -7.734375 C 0.703125 -9.367188 1.050781 -10.796875 1.75 -12.015625 C 2.445312 -13.234375 3.429688 -14.171875 4.703125 -14.828125 C 5.972656 -15.484375 7.429688 -15.8125 9.078125 -15.8125 C 11.222656 -15.8125 13.015625 -15.328125 14.453125 -14.359375 L 14.453125 -11.171875 C 13.796875 -11.710938 13.050781 -12.101562 12.21875 -12.34375 C 11.382812 -12.59375 10.4375 -12.71875 9.375 -12.71875 C 7.757812 -12.71875 6.484375 -12.269531 5.546875 -11.375 C 4.609375 -10.476562 4.140625 -9.265625 4.140625 -7.734375 C 4.140625 -6.179688 4.613281 -4.957031 5.5625 -4.0625 C 6.507812 -3.164062 7.78125 -2.71875 9.375 -2.71875 C 10.46875 -2.71875 11.429688 -2.847656 12.265625 -3.109375 C 13.109375 -3.367188 13.894531 -3.785156 14.625 -4.359375 L 14.625 -1.171875 C 13.257812 -0.171875 11.410156 0.328125 9.078125 0.328125 Z M 9.078125 0.328125 "/></g></g></g><g fill="#00ffff" fill-opacity="1"><g transform="translate(143.994648, 368.105765)"><g><path d="M 1.15625 -15.484375 L 4.515625 -15.484375 L 4.515625 -9.28125 L 11.28125 -9.28125 L 11.28125 -15.484375 L 14.640625 -15.484375 L 14.640625 0 L 11.28125 0 L 11.28125 -6.484375 L 4.515625 -6.484375 L 4.515625 0 L 1.15625 0 Z M 1.15625 -15.484375 "/></g></g></g><g fill="#00ffff" fill-opacity="1"><g transform="translate(165.455618, 368.105765)"><g><path d="M 1.15625 -15.484375 L 4.4375 -15.484375 L 10.90625 -5.46875 L 10.90625 -15.484375 L 14.265625 -15.484375 L 14.265625 0 L 11.015625 0 L 4.515625 -10.015625 L 4.515625 0 L 1.15625 0 Z M 1.15625 -15.484375 "/></g></g></g><g fill="#00ffff" fill-opacity="1"><g transform="translate(186.54016, 368.105765)"><g><path d="M 9 0.328125 C 7.445312 0.328125 6.035156 -0.0078125 4.765625 -0.6875 C 3.503906 -1.363281 2.507812 -2.3125 1.78125 -3.53125 C 1.0625 -4.75 0.703125 -6.148438 0.703125 -7.734375 C 0.703125 -9.316406 1.0625 -10.71875 1.78125 -11.9375 C 2.507812 -13.164062 3.503906 -14.117188 4.765625 -14.796875 C 6.035156 -15.472656 7.445312 -15.8125 9 -15.8125 C 10.550781 -15.8125 11.945312 -15.472656 13.1875 -14.796875 C 14.4375 -14.117188 15.421875 -13.164062 16.140625 -11.9375 C 16.867188 -10.71875 17.234375 -9.316406 17.234375 -7.734375 C 17.234375 -6.148438 16.867188 -4.75 16.140625 -3.53125 C 15.421875 -2.3125 14.4375 -1.363281 13.1875 -0.6875 C 11.945312 -0.0078125 10.550781 0.328125 9 0.328125 Z M 9 -2.765625 C 9.882812 -2.765625 10.691406 -2.96875 11.421875 -3.375 C 12.148438 -3.78125 12.726562 -4.351562 13.15625 -5.09375 C 13.582031 -5.84375 13.796875 -6.722656 13.796875 -7.734375 C 13.796875 -8.722656 13.585938 -9.585938 13.171875 -10.328125 C 12.753906 -11.078125 12.175781 -11.65625 11.4375 -12.0625 C 10.707031 -12.46875 9.894531 -12.671875 9 -12.671875 C 8.082031 -12.671875 7.253906 -12.46875 6.515625 -12.0625 C 5.785156 -11.65625 5.207031 -11.078125 4.78125 -10.328125 C 4.351562 -9.585938 4.140625 -8.722656 4.140625 -7.734375 C 4.140625 -6.722656 4.351562 -5.84375 4.78125 -5.09375 C 5.207031 -4.351562 5.789062 -3.78125 6.53125 -3.375 C 7.269531 -2.96875 8.09375 -2.765625 9 -2.765625 Z M 9 -2.765625 "/></g></g></g><g fill="#00ffff" fill-opacity="1"><g transform="translate(210.148998, 368.105765)"><g><path d="M 1.15625 -15.484375 L 4.515625 -15.484375 L 4.515625 -2.8125 L 11.609375 -2.8125 L 11.609375 0 L 1.15625 0 Z M 1.15625 -15.484375 "/></g></g></g><g fill="#00ffff" fill-opacity="1"><g transform="translate(227.712818, 368.105765)"><g><path d="M 9 0.328125 C 7.445312 0.328125 6.035156 -0.0078125 4.765625 -0.6875 C 3.503906 -1.363281 2.507812 -2.3125 1.78125 -3.53125 C 1.0625 -4.75 0.703125 -6.148438 0.703125 -7.734375 C 0.703125 -9.316406 1.0625 -10.71875 1.78125 -11.9375 C 2.507812 -13.164062 3.503906 -14.117188 4.765625 -14.796875 C 6.035156 -15.472656 7.445312 -15.8125 9 -15.8125 C 10.550781 -15.8125 11.945312 -15.472656 13.1875 -14.796875 C 14.4375 -14.117188 15.421875 -13.164062 16.140625 -11.9375 C 16.867188 -10.71875 17.234375 -9.316406 17.234375 -7.734375 C 17.234375 -6.148438 16.867188 -4.75 16.140625 -3.53125 C 15.421875 -2.3125 14.4375 -1.363281 13.1875 -0.6875 C 11.945312 -0.0078125 10.550781 0.328125 9 0.328125 Z M 9 -2.765625 C 9.882812 -2.765625 10.691406 -2.96875 11.421875 -3.375 C 12.148438 -3.78125 12.726562 -4.351562 13.15625 -5.09375 C 13.582031 -5.84375 13.796875 -6.722656 13.796875 -7.734375 C 13.796875 -8.722656 13.585938 -9.585938 13.171875 -10.328125 C 12.753906 -11.078125 12.175781 -11.65625 11.4375 -12.0625 C 10.707031 -12.46875 9.894531 -12.671875 9 -12.671875 C 8.082031 -12.671875 7.253906 -12.46875 6.515625 -12.0625 C 5.785156 -11.65625 5.207031 -11.078125 4.78125 -10.328125 C 4.351562 -9.585938 4.140625 -8.722656 4.140625 -7.734375 C 4.140625 -6.722656 4.351562 -5.84375 4.78125 -5.09375 C 5.207031 -4.351562 5.789062 -3.78125 6.53125 -3.375 C 7.269531 -2.96875 8.09375 -2.765625 9 -2.765625 Z M 9 -2.765625 "/></g></g></g><g fill="#00ffff" fill-opacity="1"><g transform="translate(251.321655, 368.105765)"><g><path d="M 9.078125 0.328125 C 7.429688 0.328125 5.972656 0 4.703125 -0.65625 C 3.429688 -1.3125 2.445312 -2.242188 1.75 -3.453125 C 1.050781 -4.660156 0.703125 -6.085938 0.703125 -7.734375 C 0.703125 -9.367188 1.050781 -10.796875 1.75 -12.015625 C 2.445312 -13.234375 3.429688 -14.171875 4.703125 -14.828125 C 5.972656 -15.484375 7.429688 -15.8125 9.078125 -15.8125 C 10.203125 -15.8125 11.195312 -15.695312 12.0625 -15.46875 C 12.925781 -15.238281 13.722656 -14.882812 14.453125 -14.40625 L 14.453125 -11.1875 C 13.796875 -11.71875 13.050781 -12.101562 12.21875 -12.34375 C 11.382812 -12.59375 10.4375 -12.71875 9.375 -12.71875 C 8.382812 -12.71875 7.492188 -12.515625 6.703125 -12.109375 C 5.910156 -11.703125 5.285156 -11.117188 4.828125 -10.359375 C 4.367188 -9.609375 4.140625 -8.734375 4.140625 -7.734375 C 4.140625 -6.710938 4.347656 -5.820312 4.765625 -5.0625 C 5.191406 -4.300781 5.785156 -3.710938 6.546875 -3.296875 C 7.316406 -2.890625 8.207031 -2.6875 9.21875 -2.6875 C 10.132812 -2.6875 10.929688 -2.847656 11.609375 -3.171875 L 11.609375 -6.15625 L 9.109375 -6.15625 L 9.109375 -8.640625 L 14.859375 -8.640625 L 14.859375 -1.171875 C 13.398438 -0.171875 11.472656 0.328125 9.078125 0.328125 Z M 9.078125 0.328125 "/></g></g></g><g fill="#00ffff" fill-opacity="1"><g transform="translate(272.583344, 368.105765)"><g><path d="M 6.375 -5.890625 L 0.703125 -15.484375 L 4.296875 -15.484375 L 8.046875 -9.046875 L 11.921875 -15.484375 L 15.484375 -15.484375 L 9.6875 -5.890625 L 9.6875 0 L 6.375 0 Z M 6.375 -5.890625 "/></g></g></g></svg>