<?xml version="1.0" encoding="UTF-8" standalone="no"?>
<!-- Uploaded to: SVG Repo, www.svgrepo.com, Generator: SVG Repo Mixer Tools -->

<svg
   fill="#000000"
   width="14.174206"
   height="14.1558"
   viewBox="0 0 18.142983 18.119424"
   version="1.1"
   id="svg19"
   sodipodi:docname="cross.svg"
   inkscape:version="1.2.2 (732a01da63, 2022-12-09)"
   xmlns:inkscape="http://www.inkscape.org/namespaces/inkscape"
   xmlns:sodipodi="http://sodipodi.sourceforge.net/DTD/sodipodi-0.dtd"
   xmlns="http://www.w3.org/2000/svg"
   xmlns:svg="http://www.w3.org/2000/svg">
  <defs
     id="defs23" />
  <sodipodi:namedview
     id="namedview21"
     pagecolor="#505050"
     bordercolor="#ffffff"
     borderopacity="1"
     inkscape:showpageshadow="0"
     inkscape:pageopacity="0"
     inkscape:pagecheckerboard="1"
     inkscape:deskcolor="#505050"
     showgrid="false"
     inkscape:zoom="31"
     inkscape:cx="8.983871"
     inkscape:cy="7.9193549"
     inkscape:window-width="1920"
     inkscape:window-height="991"
     inkscape:window-x="-9"
     inkscape:window-y="-9"
     inkscape:window-maximized="1"
     inkscape:current-layer="svg19" />
  <path
     d="M 9.0719735,7.221623 15.929204,0.38298296 c 0.50735,-0.50616 1.32895,-0.50519 1.83513,0.004 0.50618,0.50733 0.50521,1.32897004 -0.005,1.83514004 l -6.8543,6.83574 6.85133,6.84549 c 0.50695,0.50656 0.50723,1.32818 0.004,1.83513 -0.50658,0.50694 -1.3282,0.50723 -1.83516,0.005 l -6.8544705,-6.84867 -6.85682,6.83826 c -0.50736,0.50616 -1.32895997,0.50522 -1.83513997,-0.005 -0.50618,-0.50733 -0.50521,-1.32896 0.004,-1.83513 L 7.2365135,9.057363 0.38929353,2.215963 c -0.50694,-0.50657 -0.50723,-1.32819004 -0.004,-1.83514004 0.50655,-0.50695 1.32817997,-0.50724 1.83513997,-0.004 l 6.85037,6.84455004 z"
     id="path17"
     style="stroke-width:0.0202756;fill:#ffffff" />
</svg>
