<svg id="visual" viewBox="0 0 900 600" width="900" height="600" xmlns="http://www.w3.org/2000/svg" xmlns:xlink="http://www.w3.org/1999/xlink" version="1.1"><rect x="0" y="0" width="900" height="600" fill="#003760"></rect><path d="M0 422L37.5 414.5C75 407 150 392 225 396.8C300 401.7 375 426.3 450 450.8C525 475.3 600 499.7 675 488.5C750 477.3 825 430.7 862.5 407.3L900 384L900 601L862.5 601C825 601 750 601 675 601C600 601 525 601 450 601C375 601 300 601 225 601C150 601 75 601 37.5 601L0 601Z" fill="#1d649a"></path><path d="M0 513L37.5 507.3C75 501.7 150 490.3 225 479.5C300 468.7 375 458.3 450 453.7C525 449 600 450 675 463.7C750 477.3 825 503.7 862.5 516.8L900 530L900 601L862.5 601C825 601 750 601 675 601C600 601 525 601 450 601C375 601 300 601 225 601C150 601 75 601 37.5 601L0 601Z" fill="#2c70a4"></path><path d="M0 453L37.5 459.7C75 466.3 150 479.7 225 493C300 506.3 375 519.7 450 525.8C525 532 600 531 675 527.2C750 523.3 825 516.7 862.5 513.3L900 510L900 601L862.5 601C825 601 750 601 675 601C600 601 525 601 450 601C375 601 300 601 225 601C150 601 75 601 37.5 601L0 601Z" fill="#3a7caf"></path><path d="M0 524L37.5 518C75 512 150 500 225 500.3C300 500.7 375 513.3 450 514.2C525 515 600 504 675 502.8C750 501.7 825 510.3 862.5 514.7L900 519L900 601L862.5 601C825 601 750 601 675 601C600 601 525 601 450 601C375 601 300 601 225 601C150 601 75 601 37.5 601L0 601Z" fill="#4788ba"></path><path d="M0 567L37.5 567.5C75 568 150 569 225 562.5C300 556 375 542 450 538.2C525 534.3 600 540.7 675 545.3C750 550 825 553 862.5 554.5L900 556L900 601L862.5 601C825 601 750 601 675 601C600 601 525 601 450 601C375 601 300 601 225 601C150 601 75 601 37.5 601L0 601Z" fill="#5494c5"></path></svg>