<?xml version="1.0" encoding="UTF-8" standalone="no"?>
<svg
   width="181.27011"
   height="38.089508"
   viewBox="0 0 47.961067 10.07783"
   version="1.1"
   id="svg1079"
   sodipodi:docname="logo.svg"
   inkscape:version="1.2.2 (732a01da63, 2022-12-09)"
   xmlns:inkscape="http://www.inkscape.org/namespaces/inkscape"
   xmlns:sodipodi="http://sodipodi.sourceforge.net/DTD/sodipodi-0.dtd"
   xmlns:xlink="http://www.w3.org/1999/xlink"
   xmlns="http://www.w3.org/2000/svg"
   xmlns:svg="http://www.w3.org/2000/svg">
  <sodipodi:namedview
     id="namedview1081"
     pagecolor="#505050"
     bordercolor="#ffffff"
     borderopacity="1"
     inkscape:showpageshadow="0"
     inkscape:pageopacity="0"
     inkscape:pagecheckerboard="1"
     inkscape:deskcolor="#505050"
     showgrid="false"
     inkscape:zoom="2.4024577"
     inkscape:cx="92.613492"
     inkscape:cy="18.106458"
     inkscape:window-width="1920"
     inkscape:window-height="991"
     inkscape:window-x="-9"
     inkscape:window-y="-9"
     inkscape:window-maximized="1"
     inkscape:current-layer="svg1079" />
  <g
     fill="#ffffff"
     id="g1074"
     transform="matrix(0.34867844,0,0,0.34867844,-3.3818322,-0.81524658)">
    <path
       d="M 9.699,22.124 V 15.421 L 18.928,9.9 v 5.813 l -5.538,3.109 5.538,3.093 v 5.797 z m 25.778,8.825 H 30.36 L 27.219,12.344 V 30.949 H 21.746 V 5.155 h 8.679 l 2.396,13.456 2.38,-13.456 h 8.76 V 30.949 H 38.423 V 12.344 Z"
       id="path1066" />
    <use
       xlink:href="#B"
       id="use1068" />
    <use
       xlink:href="#B"
       x="16.077999"
       id="use1070" />
    <path
       d="m 89.671,5.155 2.85,25.794 h -5.505 l -0.405,-3.886 h -2.882 l -0.356,3.886 H 77.835 L 80.75,5.155 Z m -4.258,4.841 h -0.518 l -0.761,12.371 h 2.04 z M 94.27,30.949 V 5.155 h 7.724 q 3.028,0 4.485,1.344 1.457,1.328 1.457,4.55 0,0.097 0,0.275 0,0.567 0,0.842 0,0.275 -0.065,0.858 -0.049,0.583 -0.162,0.923 -0.097,0.324 -0.308,0.81 -0.21,0.486 -0.518,0.793 -0.308,0.308 -0.777,0.599 -0.47,0.291 -1.085,0.437 0.891,0.21 1.522,0.729 0.631,0.518 0.955,1.101 0.324,0.567 0.502,1.409 0.194,0.842 0.227,1.409 0.032,0.567 0.032,1.36 0,2.04 -0.291,3.497 -0.275,1.457 -0.972,2.607 -0.696,1.133 -1.943,1.7 -1.231,0.551 -3.06,0.551 z m 5.57,-12.063 v 7.481 q 0.389,0.032 0.567,0.032 2.218,0 2.218,-1.911 0,0 0,-3.222 0,-1.231 -0.421,-1.797 -0.405,-0.583 -1.312,-0.583 z m 0,-4.016 h 1.166 q 0.421,0 0.68,-0.178 0.275,-0.178 0.389,-0.502 0.113,-0.34 0.146,-0.599 0.032,-0.275 0.032,-0.648 v -2.558 q 0,-1.231 -1.214,-1.231 H 99.84 Z m 10.427,16.079 V 5.155 h 11.399 v 5.003 h -5.602 v 5.036 h 5.376 v 4.841 h -5.376 v 5.878 h 5.975 v 5.036 z m 19.204,0 h -5.878 l 6.639,-28.611 h 5.894 z m 17.779,-8.825 -9.229,5.586 v -5.797 l 5.538,-3.093 -5.538,-3.109 V 9.899 l 9.229,5.521 z"
       id="path1072" />
  </g>
  <defs
     id="defs1077">
    <path
       id="B"
       d="m 60.542,19.841 v 4.874 q 0,3.368 -1.911,4.955 -1.911,1.571 -5.343,1.571 -3.044,0 -4.955,-1.733 -1.911,-1.749 -1.911,-4.955 V 12.587 q 0,-3.837 1.684,-5.732 1.7,-1.911 5.311,-1.911 1.473,0 2.72,0.372 1.247,0.356 2.202,1.069 0.972,0.712 1.522,1.878 0.551,1.15 0.551,2.655 v 4.55 h -5.635 v -2.996 q 0,-2.315 -1.36,-2.315 -0.81,0 -1.069,0.518 -0.259,0.502 -0.259,1.409 v 12.193 q 0,0.793 0.356,1.376 0.372,0.583 0.972,0.583 0.551,0 0.955,-0.421 0.405,-0.437 0.405,-1.538 V 19.84 Z" />
  </defs>
</svg>
