<svg xmlns="http://www.w3.org/2000/svg" xmlns:xlink="http://www.w3.org/1999/xlink" width="597.305" height="125.507" viewBox="0 0 158.037 33.207" xmlns:v="https://vecta.io/nano"><g fill="#fff"><path d="M9.699 22.124v-6.703L18.928 9.9v5.813l-5.538 3.109 5.538 3.093v5.797zm25.778 8.825H30.36l-3.141-18.605v18.605h-5.473V5.155h8.679l2.396 13.456 2.38-13.456h8.76v25.794h-5.538V12.344z"/><use xlink:href="#B"/><use xlink:href="#B" x="16.078"/><path d="M89.671 5.155l2.85 25.794h-5.505l-.405-3.886h-2.882l-.356 3.886h-5.538L80.75 5.155zm-4.258 4.841h-.518l-.761 12.371h2.04zm8.857 20.953V5.155h7.724q3.028 0 4.485 1.344 1.457 1.328 1.457 4.55 0 .097 0 .275 0 .567 0 .842 0 .275-.065.858-.049.583-.162.923-.097.324-.308.81-.21.486-.518.793-.308.308-.777.599-.47.291-1.085.437.891.21 1.522.729.631.518.955 1.101.324.567.502 1.409.194.842.227 1.409.032.567.032 1.36 0 2.04-.291 3.497-.275 1.457-.972 2.607-.696 1.133-1.943 1.7-1.231.551-3.06.551zm5.57-12.063v7.481q.389.032.567.032 2.218 0 2.218-1.911 0 0 0-3.222 0-1.231-.421-1.797-.405-.583-1.312-.583zm0-4.016h1.166q.421 0 .68-.178.275-.178.389-.502.113-.34.146-.599.032-.275.032-.648v-2.558q0-1.231-1.214-1.231H99.84zm10.427 16.079V5.155h11.399v5.003h-5.602v5.036h5.376v4.841h-5.376v5.878h5.975v5.036zm19.204 0h-5.878l6.639-28.611h5.894zm17.779-8.825l-9.229 5.586v-5.797l5.538-3.093-5.538-3.109V9.899l9.229 5.521z"/></g><defs ><path id="B" d="M60.542 19.841v4.874q0 3.368-1.911 4.955-1.911 1.571-5.343 1.571-3.044 0-4.955-1.733-1.911-1.749-1.911-4.955V12.587q0-3.837 1.684-5.732 1.7-1.911 5.311-1.911 1.473 0 2.72.372 1.247.356 2.202 1.069.972.712 1.522 1.878.551 1.15.551 2.655v4.55h-5.635v-2.996q0-2.315-1.36-2.315-.81 0-1.069.518-.259.502-.259 1.409v12.193q0 .793.356 1.376.372.583.972.583.551 0 .955-.421.405-.437.405-1.538v-4.437z"/></defs></svg>