<?xml version="1.0" encoding="UTF-8" standalone="no"?>
<svg
   width="150"
   zoomAndPan="magnify"
   viewBox="0 0 112.5 112.499997"
   height="150"
   preserveAspectRatio="xMidYMid meet"
   version="1.0"
   id="svg6698"
   sodipodi:docname="megaphone_150px.svg"
   inkscape:version="1.2.2 (732a01da63, 2022-12-09)"
   xmlns:inkscape="http://www.inkscape.org/namespaces/inkscape"
   xmlns:sodipodi="http://sodipodi.sourceforge.net/DTD/sodipodi-0.dtd"
   xmlns="http://www.w3.org/2000/svg"
   xmlns:svg="http://www.w3.org/2000/svg">
  <sodipodi:namedview
     id="namedview6700"
     pagecolor="#505050"
     bordercolor="#ffffff"
     borderopacity="1"
     inkscape:showpageshadow="0"
     inkscape:pageopacity="0"
     inkscape:pagecheckerboard="1"
     inkscape:deskcolor="#505050"
     showgrid="false"
     inkscape:zoom="5.36"
     inkscape:cx="74.160448"
     inkscape:cy="75.093284"
     inkscape:window-width="1920"
     inkscape:window-height="991"
     inkscape:window-x="-9"
     inkscape:window-y="-9"
     inkscape:window-maximized="1"
     inkscape:current-layer="svg6698" />
  <defs
     id="defs6666">
    <clipPath
       id="f02676a3ce">
      <path
         d="M 4.648438 2.324219 L 112.003906 2.324219 L 112.003906 110.324219 L 4.648438 110.324219 Z M 4.648438 2.324219 "
         clip-rule="nonzero"
         id="path6660" />
    </clipPath>
    <clipPath
       id="500fb6939b">
      <path
         d="M 24 23 L 112.003906 23 L 112.003906 110.324219 L 24 110.324219 Z M 24 23 "
         clip-rule="nonzero"
         id="path6663" />
    </clipPath>
  </defs>
  <g
     clip-path="url(#f02676a3ce)"
     id="g6670"
     style="fill:#003760;fill-opacity:1">
    <path
       fill="#005c83"
       d="M 112.648438 56.324219 C 112.648438 86.148438 88.472656 110.324219 58.648438 110.324219 C 28.824219 110.324219 4.648438 86.148438 4.648438 56.324219 C 4.648438 26.5 28.824219 2.324219 58.648438 2.324219 C 88.472656 2.324219 112.648438 26.5 112.648438 56.324219 Z M 112.648438 56.324219 "
       fill-opacity="1"
       fill-rule="nonzero"
       id="path6668"
       style="fill:#003760;fill-opacity:1" />
  </g>
  <g
     clip-path="url(#500fb6939b)"
     id="g6674">
    <path
       fill="#00263f"
       d="M 112.648438 56.324219 C 112.648438 56.078125 112.644531 55.832031 112.640625 55.589844 L 96.511719 39.347656 L 96.433594 39.46875 L 85.398438 28.492188 L 81.324219 35.3125 L 69.34375 23.332031 L 64.113281 44.335938 L 24.023438 76.523438 L 57.8125 110.3125 C 58.09375 110.316406 58.371094 110.324219 58.648438 110.324219 C 88.472656 110.324219 112.648438 86.148438 112.648438 56.324219 Z M 112.648438 56.324219 "
       fill-opacity="1"
       fill-rule="nonzero"
       id="path6672" />
  </g>
  <path
     fill="#ae4e32"
     d="M 59.699219 88.113281 L 46.433594 92.589844 L 37.097656 65.910156 L 50.367188 61.429688 Z M 59.699219 88.113281 "
     fill-opacity="1"
     fill-rule="nonzero"
     id="path6676"
     style="fill:#a02515;fill-opacity:1" />
  <path
     fill="#ffffff"
     d="M 87.136719 74.191406 C 87.136719 74.191406 55.925781 65.59375 34.867188 72.960938 L 29.242188 56.882812 C 50.300781 49.515625 69.34375 23.332031 69.34375 23.332031 Z M 87.136719 74.191406 "
     fill-opacity="1"
     fill-rule="nonzero"
     id="path6678" />
  <path
     fill="#e0e0e0"
     d="M 32.652344 66.632812 L 34.867188 72.960938 C 55.925781 65.59375 87.136719 74.191406 87.136719 74.191406 L 78.144531 48.484375 Z M 32.652344 66.632812 "
     fill-opacity="1"
     fill-rule="nonzero"
     id="path6680" />
  <path
     fill="#ff6838"
     d="M 69.34375 23.332031 C 69.34375 23.332031 66.960938 26.609375 62.953125 31.167969 L 77.253906 72.054688 C 83.230469 73.117188 87.136719 74.191406 87.136719 74.191406 Z M 69.34375 23.332031 "
     fill-opacity="1"
     fill-rule="nonzero"
     id="path6682"
     style="fill:#e1341e;fill-opacity:1" />
  <path
     fill="#ae4e32"
     d="M 70.128906 51.679688 L 77.253906 72.054688 C 83.230469 73.117188 87.136719 74.191406 87.136719 74.191406 L 78.144531 48.484375 Z M 70.128906 51.679688 "
     fill-opacity="1"
     fill-rule="nonzero"
     id="path6684"
     style="fill:#a02515;fill-opacity:1" />
  <path
     fill="#ff6838"
     d="M 24.023438 76.523438 L 34.867188 72.960938 L 29.242188 56.882812 L 18.472656 60.648438 Z M 24.023438 76.523438 "
     fill-opacity="1"
     fill-rule="nonzero"
     id="path6686"
     style="fill:#e1341e;fill-opacity:1" />
  <path
     fill="#ae4e32"
     d="M 22.042969 70.863281 L 24.023438 76.523438 L 34.867188 72.960938 L 32.652344 66.632812 Z M 22.042969 70.863281 "
     fill-opacity="1"
     fill-rule="nonzero"
     id="path6688"
     style="fill:#a02515;fill-opacity:1" />
  <path
     fill="#ffdc00"
     d="M 84.234375 49.136719 L 82.589844 45.253906 L 96.511719 39.347656 L 98.15625 43.234375 Z M 84.234375 49.136719 "
     fill-opacity="1"
     fill-rule="nonzero"
     id="path6690"
     style="fill:#ffffff" />
  <path
     fill="#ffc000"
     d="M 98.160156 43.234375 L 97.234375 41.050781 L 83.269531 46.859375 L 84.238281 49.140625 Z M 98.160156 43.234375 "
     fill-opacity="1"
     fill-rule="nonzero"
     id="path6692"
     style="fill:#e0e0e0;fill-opacity:1" />
  <path
     fill="#ffdc00"
     d="M 80.515625 39.691406 L 76.648438 38.003906 L 81.53125 26.808594 L 85.398438 28.492188 Z M 80.515625 39.691406 "
     fill-opacity="1"
     fill-rule="nonzero"
     id="path6694"
     style="fill:#ffffff" />
  <path
     fill="#ffc000"
     d="M 96.839844 62.402344 L 84.964844 59.535156 L 85.957031 55.433594 L 97.828125 58.300781 Z M 96.839844 62.402344 "
     fill-opacity="1"
     fill-rule="nonzero"
     id="path6696"
     style="fill:#e0e0e0;fill-opacity:1" />
</svg>
