<?xml version="1.0" encoding="UTF-8" standalone="no"?>
<svg
   width="150"
   zoomAndPan="magnify"
   viewBox="0 0 112.5 112.499997"
   height="150"
   preserveAspectRatio="xMidYMid meet"
   version="1.0"
   id="svg13270"
   sodipodi:docname="rand_ring_150px.svg"
   inkscape:version="1.2.2 (732a01da63, 2022-12-09)"
   xmlns:inkscape="http://www.inkscape.org/namespaces/inkscape"
   xmlns:sodipodi="http://sodipodi.sourceforge.net/DTD/sodipodi-0.dtd"
   xmlns="http://www.w3.org/2000/svg"
   xmlns:svg="http://www.w3.org/2000/svg">
  <sodipodi:namedview
     id="namedview13272"
     pagecolor="#505050"
     bordercolor="#ffffff"
     borderopacity="1"
     inkscape:showpageshadow="0"
     inkscape:pageopacity="0"
     inkscape:pagecheckerboard="1"
     inkscape:deskcolor="#505050"
     showgrid="false"
     inkscape:zoom="5.36"
     inkscape:cx="74.160448"
     inkscape:cy="75.093284"
     inkscape:window-width="1920"
     inkscape:window-height="991"
     inkscape:window-x="-9"
     inkscape:window-y="-9"
     inkscape:window-maximized="1"
     inkscape:current-layer="svg13270" />
  <defs
     id="defs13260">
    <clipPath
       id="0438c6a561">
      <path
         d="M 4.859375 4.859375 L 101 4.859375 L 101 81 L 4.859375 81 Z M 4.859375 4.859375 "
         clip-rule="nonzero"
         id="path13254" />
    </clipPath>
    <clipPath
       id="6d282dd190">
      <path
         d="M 14 34 L 107.609375 34 L 107.609375 107.609375 L 14 107.609375 Z M 14 34 "
         clip-rule="nonzero"
         id="path13257" />
    </clipPath>
  </defs>
  <g
     clip-path="url(#0438c6a561)"
     id="g13264"
     style="fill:#003760;fill-opacity:1">
    <path
       fill="#cb3636"
       d="M 56.222656 4.851562 C 27.851562 4.851562 4.851562 27.851562 4.851562 56.222656 C 4.851562 64.75 6.933594 72.796875 10.609375 79.875 L 10.613281 79.875 C 12.390625 80.371094 14.457031 80.621094 16.8125 80.621094 C 17.628906 80.621094 18.476562 80.589844 19.363281 80.53125 C 19.386719 80.53125 19.410156 80.527344 19.433594 80.527344 C 21.742188 80.433594 24.964844 79.296875 29.097656 77.113281 C 24.640625 71.332031 21.988281 64.085938 21.988281 56.222656 C 21.988281 37.3125 37.3125 21.988281 56.222656 21.988281 C 66.285156 21.988281 75.335938 26.328125 81.597656 33.242188 C 86.101562 30.941406 89.820312 29.722656 92.753906 29.59375 C 93.738281 29.527344 94.691406 29.496094 95.613281 29.496094 C 97.273438 29.496094 98.835938 29.601562 100.292969 29.816406 C 91.3125 14.859375 74.9375 4.851562 56.222656 4.851562 Z M 56.222656 4.851562 "
       fill-opacity="1"
       fill-rule="nonzero"
       id="path13262"
       style="fill:#003760;fill-opacity:1" />
  </g>
  <g
     clip-path="url(#6d282dd190)"
     id="g13268"
     style="fill:#e1341e;fill-opacity:1">
    <path
       fill="#f57227"
       d="M 95.628906 34.765625 C 94.816406 34.765625 93.964844 34.792969 93.082031 34.851562 C 93.058594 34.855469 93.035156 34.855469 93.011719 34.855469 C 90.992188 34.9375 88.28125 35.816406 84.878906 37.492188 L 84.882812 37.492188 C 88.40625 42.871094 90.457031 49.308594 90.457031 56.222656 C 90.457031 75.128906 75.128906 90.457031 56.222656 90.457031 C 47.128906 90.457031 38.863281 86.910156 32.734375 81.128906 L 32.730469 81.128906 C 32.695312 81.148438 32.660156 81.171875 32.621094 81.195312 C 32.585938 81.21875 32.546875 81.242188 32.507812 81.261719 C 27.25 84.136719 22.976562 85.648438 19.691406 85.792969 L 19.6875 85.792969 C 18.703125 85.859375 17.75 85.890625 16.832031 85.890625 C 15.929688 85.890625 15.058594 85.859375 14.214844 85.796875 C 23.515625 98.980469 38.863281 107.589844 56.222656 107.589844 C 84.589844 107.589844 107.589844 84.589844 107.589844 56.222656 C 107.589844 49.0625 106.125 42.25 103.480469 36.058594 L 103.484375 36.058594 C 103.347656 36.007812 103.207031 35.960938 103.066406 35.910156 C 103.046875 35.90625 103.03125 35.898438 103.011719 35.890625 C 100.988281 35.140625 98.527344 34.765625 95.628906 34.765625 Z M 95.628906 34.765625 "
       fill-opacity="1"
       fill-rule="nonzero"
       id="path13266"
       style="fill:#e1341e;fill-opacity:1" />
  </g>
</svg>
