<?xml version="1.0" encoding="UTF-8" standalone="no"?>
<svg
   width="150"
   zoomAndPan="magnify"
   viewBox="0 0 112.5 112.499997"
   height="150"
   preserveAspectRatio="xMidYMid meet"
   version="1.0"
   id="svg1743"
   sodipodi:docname="rocket_150px.svg"
   inkscape:version="1.2.2 (732a01da63, 2022-12-09)"
   xmlns:inkscape="http://www.inkscape.org/namespaces/inkscape"
   xmlns:sodipodi="http://sodipodi.sourceforge.net/DTD/sodipodi-0.dtd"
   xmlns="http://www.w3.org/2000/svg"
   xmlns:svg="http://www.w3.org/2000/svg">
  <sodipodi:namedview
     id="namedview1745"
     pagecolor="#505050"
     bordercolor="#ffffff"
     borderopacity="1"
     inkscape:showpageshadow="0"
     inkscape:pageopacity="0"
     inkscape:pagecheckerboard="1"
     inkscape:deskcolor="#505050"
     showgrid="false"
     inkscape:zoom="5.36"
     inkscape:cx="73.414179"
     inkscape:cy="75.279851"
     inkscape:window-width="1920"
     inkscape:window-height="991"
     inkscape:window-x="-9"
     inkscape:window-y="-9"
     inkscape:window-maximized="1"
     inkscape:current-layer="svg1743" />
  <defs
     id="defs1689">
    <clipPath
       id="c14863dddc">
      <path
         d="M 11.277344 20.175781 L 102.722656 20.175781 L 102.722656 111.238281 L 11.277344 111.238281 Z M 11.277344 20.175781 "
         clip-rule="nonzero"
         id="path1680" />
    </clipPath>
    <clipPath
       id="2866b9514f">
      <path
         d="M 11.277344 46.050781 L 102.453125 46.050781 L 102.453125 111.238281 L 11.277344 111.238281 Z M 11.277344 46.050781 "
         clip-rule="nonzero"
         id="path1683" />
    </clipPath>
    <clipPath
       id="1437feee56">
      <path
         d="M 13.667969 46.050781 L 100.488281 46.050781 L 100.488281 111.238281 L 13.667969 111.238281 Z M 13.667969 46.050781 "
         clip-rule="nonzero"
         id="path1686" />
    </clipPath>
  </defs>
  <g
     clip-path="url(#c14863dddc)"
     id="g1693"
     style="fill:#e1341e;fill-opacity:1">
    <path
       fill="#2b394c"
       d="M 102.722656 65.734375 C 102.722656 67.492188 102.625 69.222656 102.425781 70.929688 C 102.402344 71.160156 102.371094 71.386719 102.34375 71.617188 C 101.960938 74.589844 101.285156 77.46875 100.351562 80.234375 C 94.875 96.472656 80.453125 108.621094 62.910156 110.871094 C 60.976562 111.121094 59.003906 111.25 57 111.25 C 36.902344 111.25 19.828125 98.335938 13.699219 80.386719 C 12.496094 76.855469 11.714844 73.132812 11.414062 69.273438 C 11.324219 68.105469 11.277344 66.925781 11.277344 65.734375 C 11.277344 40.59375 31.75 20.214844 57 20.214844 C 82.253906 20.214844 102.722656 40.59375 102.722656 65.734375 "
       fill-opacity="1"
       fill-rule="nonzero"
       id="path1691"
       style="fill:#e1341e;fill-opacity:1" />
  </g>
  <path
     fill="#f0f4f4"
     d="M 27.464844 41.664062 L 28.300781 42.496094 L 28.585938 43.621094 L 29.65625 43.117188 L 30.84375 43.210938 L 30.671875 42.066406 L 31.125 40.996094 L 29.949219 40.792969 L 29.035156 40.042969 L 28.480469 41.0625 L 27.464844 41.664062 "
     fill-opacity="1"
     fill-rule="nonzero"
     id="path1695" />
  <path
     fill="#f0f4f4"
     d="M 44.710938 58.683594 L 44.390625 59.910156 L 43.167969 60.363281 L 44.4375 60.683594 L 44.914062 61.871094 L 45.234375 60.640625 L 46.457031 60.191406 L 45.1875 59.871094 L 44.710938 58.683594 "
     fill-opacity="1"
     fill-rule="nonzero"
     id="path1697" />
  <path
     fill="#f0f4f4"
     d="M 17.316406 58.375 L 16.875 60.054688 L 15.207031 60.671875 L 16.941406 61.109375 L 17.59375 62.726562 L 18.03125 61.050781 L 19.699219 60.433594 L 17.964844 59.996094 L 17.316406 58.375 "
     fill-opacity="1"
     fill-rule="nonzero"
     id="path1699" />
  <path
     fill="#f0f4f4"
     d="M 87.359375 60.371094 L 88.261719 61.273438 L 88.570312 62.488281 L 89.730469 61.945312 L 91.015625 62.042969 L 90.832031 60.804688 L 91.320312 59.648438 L 90.046875 59.429688 L 89.058594 58.613281 L 88.457031 59.71875 L 87.359375 60.371094 "
     fill-opacity="1"
     fill-rule="nonzero"
     id="path1701" />
  <path
     fill="#f0f4f4"
     d="M 77.125 38.835938 L 76.648438 40.648438 L 74.84375 41.320312 L 76.71875 41.792969 L 77.421875 43.542969 L 77.898438 41.730469 L 79.703125 41.0625 L 77.824219 40.585938 L 77.125 38.835938 "
     fill-opacity="1"
     fill-rule="nonzero"
     id="path1703" />
  <g
     clip-path="url(#2866b9514f)"
     id="g1707">
    <path
       fill="#bdc2c5"
       d="M 102.425781 70.929688 C 102.402344 71.160156 102.371094 71.386719 102.34375 71.613281 C 101.960938 74.589844 101.285156 77.46875 100.355469 80.234375 C 100.332031 80.289062 100.316406 80.347656 100.296875 80.40625 C 100.226562 80.601562 100.160156 80.796875 100.089844 80.992188 C 100 81.246094 99.90625 81.496094 99.8125 81.746094 C 99.734375 81.953125 99.65625 82.160156 99.574219 82.367188 C 99.542969 82.441406 99.511719 82.523438 99.480469 82.601562 C 99.421875 82.75 99.359375 82.898438 99.296875 83.042969 C 99.253906 83.15625 99.207031 83.265625 99.160156 83.378906 C 99.070312 83.589844 98.980469 83.796875 98.890625 84.003906 C 98.796875 84.210938 98.707031 84.421875 98.609375 84.625 C 98.59375 84.664062 98.574219 84.703125 98.554688 84.742188 C 98.46875 84.929688 98.382812 85.117188 98.292969 85.300781 C 97.578125 86.792969 96.785156 88.242188 95.917969 89.640625 C 95.792969 89.84375 95.664062 90.042969 95.535156 90.242188 C 95.417969 90.425781 95.296875 90.609375 95.175781 90.789062 C 95.175781 90.796875 95.171875 90.800781 95.167969 90.804688 C 95.113281 90.890625 95.054688 90.976562 94.996094 91.0625 C 94.882812 91.226562 94.773438 91.390625 94.660156 91.554688 C 94.5 91.785156 94.339844 92.011719 94.175781 92.238281 C 94.035156 92.433594 93.894531 92.628906 93.746094 92.824219 C 93.738281 92.832031 93.730469 92.847656 93.722656 92.855469 C 93.601562 93.019531 93.476562 93.183594 93.351562 93.34375 C 93.144531 93.617188 92.933594 93.886719 92.71875 94.152344 C 92.597656 94.300781 92.480469 94.449219 92.355469 94.59375 C 92.28125 94.6875 92.207031 94.777344 92.132812 94.863281 C 91.730469 95.347656 91.316406 95.820312 90.894531 96.28125 C 90.800781 96.386719 90.707031 96.488281 90.609375 96.59375 C 89.976562 97.273438 89.324219 97.941406 88.648438 98.582031 C 88.558594 98.667969 88.472656 98.75 88.382812 98.835938 C 87.835938 99.347656 87.28125 99.847656 86.710938 100.332031 C 86.59375 100.433594 86.480469 100.53125 86.359375 100.625 C 86.328125 100.652344 86.296875 100.679688 86.265625 100.707031 C 86.152344 100.796875 86.039062 100.890625 85.929688 100.980469 C 84.660156 102.015625 83.332031 102.984375 81.953125 103.882812 C 81.867188 103.9375 81.777344 103.996094 81.691406 104.046875 C 81.46875 104.191406 81.242188 104.335938 81.015625 104.472656 C 80.882812 104.554688 80.75 104.636719 80.617188 104.714844 C 80.484375 104.792969 80.351562 104.875 80.21875 104.953125 C 80.085938 105.03125 79.953125 105.109375 79.816406 105.1875 C 79.683594 105.261719 79.550781 105.339844 79.414062 105.414062 C 78.6875 105.820312 77.949219 106.210938 77.199219 106.578125 C 77.082031 106.636719 76.960938 106.695312 76.839844 106.75 C 76.171875 107.074219 75.5 107.375 74.8125 107.667969 C 74.667969 107.726562 74.523438 107.789062 74.378906 107.847656 C 74.257812 107.894531 74.128906 107.945312 74.007812 107.996094 C 73.550781 108.179688 73.09375 108.351562 72.628906 108.519531 C 72.515625 108.5625 72.40625 108.601562 72.296875 108.640625 C 72.207031 108.671875 72.121094 108.703125 72.03125 108.734375 C 71.398438 108.953125 70.753906 109.160156 70.109375 109.351562 C 69.980469 109.390625 69.851562 109.429688 69.71875 109.464844 C 68.121094 109.925781 66.488281 110.300781 64.820312 110.585938 C 64.664062 110.613281 64.503906 110.636719 64.347656 110.664062 C 64.1875 110.691406 64.027344 110.714844 63.867188 110.738281 C 63.75 110.753906 63.632812 110.773438 63.511719 110.789062 C 63.3125 110.820312 63.113281 110.847656 62.910156 110.871094 C 60.976562 111.121094 59.003906 111.25 57 111.25 C 56.8125 111.25 56.625 111.246094 56.4375 111.246094 C 56.292969 111.246094 56.144531 111.242188 56 111.238281 C 55.871094 111.238281 55.742188 111.234375 55.613281 111.226562 C 55.328125 111.21875 55.042969 111.210938 54.757812 111.195312 C 54.644531 111.191406 54.527344 111.183594 54.414062 111.175781 C 54.273438 111.171875 54.136719 111.164062 54 111.152344 C 53.882812 111.144531 53.765625 111.136719 53.648438 111.128906 C 53.523438 111.121094 53.394531 111.109375 53.269531 111.097656 C 53.152344 111.089844 53.039062 111.082031 52.925781 111.070312 C 52.828125 111.0625 52.734375 111.054688 52.636719 111.046875 C 52.421875 111.027344 52.207031 111.003906 51.992188 110.980469 C 51.8125 110.960938 51.628906 110.941406 51.449219 110.917969 C 51.445312 110.917969 51.4375 110.917969 51.433594 110.917969 C 51.257812 110.894531 51.082031 110.871094 50.902344 110.847656 C 50.734375 110.828125 50.566406 110.804688 50.398438 110.777344 C 50.273438 110.761719 50.148438 110.742188 50.023438 110.722656 C 49.902344 110.703125 49.785156 110.6875 49.664062 110.667969 C 49.539062 110.648438 49.410156 110.625 49.28125 110.601562 C 49.101562 110.574219 48.921875 110.542969 48.746094 110.507812 C 47.300781 110.25 45.882812 109.917969 44.492188 109.523438 C 44.355469 109.484375 44.222656 109.449219 44.085938 109.410156 C 43.882812 109.347656 43.675781 109.289062 43.46875 109.222656 C 43.308594 109.171875 43.152344 109.125 42.992188 109.074219 C 42.824219 109.019531 42.652344 108.964844 42.484375 108.90625 C 42.292969 108.84375 42.101562 108.78125 41.910156 108.710938 C 41.804688 108.675781 41.699219 108.640625 41.59375 108.601562 C 41.222656 108.46875 40.847656 108.332031 40.480469 108.1875 C 40.316406 108.121094 40.148438 108.058594 39.984375 107.992188 C 39.820312 107.925781 39.65625 107.859375 39.496094 107.792969 C 38.976562 107.578125 38.464844 107.355469 37.957031 107.125 C 37.824219 107.0625 37.6875 107.003906 37.554688 106.941406 C 37.398438 106.863281 37.238281 106.789062 37.078125 106.710938 C 36.445312 106.40625 35.820312 106.085938 35.203125 105.753906 C 35.046875 105.667969 34.894531 105.585938 34.742188 105.5 C 34.589844 105.414062 34.4375 105.328125 34.28125 105.242188 C 33.660156 104.886719 33.046875 104.519531 32.445312 104.132812 C 32.332031 104.0625 32.21875 103.988281 32.105469 103.917969 C 31.644531 103.621094 31.191406 103.3125 30.742188 103 C 30.597656 102.898438 30.457031 102.796875 30.316406 102.699219 C 29.75 102.289062 29.191406 101.871094 28.644531 101.4375 C 28.507812 101.332031 28.371094 101.222656 28.234375 101.113281 C 27.71875 100.695312 27.207031 100.265625 26.707031 99.824219 C 26.597656 99.726562 26.488281 99.628906 26.378906 99.535156 C 25.820312 99.03125 25.273438 98.511719 24.738281 97.984375 C 24.613281 97.863281 24.492188 97.742188 24.371094 97.613281 C 24.25 97.492188 24.128906 97.367188 24.007812 97.246094 C 23.160156 96.363281 22.34375 95.449219 21.566406 94.5 C 21.382812 94.277344 21.199219 94.050781 21.019531 93.820312 C 20.988281 93.777344 20.953125 93.734375 20.917969 93.691406 C 20.8125 93.558594 20.710938 93.425781 20.609375 93.289062 C 19.761719 92.183594 18.964844 91.035156 18.222656 89.855469 C 18.128906 89.707031 18.035156 89.5625 17.949219 89.414062 C 17.742188 89.078125 17.539062 88.742188 17.34375 88.402344 C 17.199219 88.152344 17.054688 87.894531 16.914062 87.640625 C 16.90625 87.628906 16.898438 87.613281 16.894531 87.601562 C 16.808594 87.449219 16.722656 87.292969 16.640625 87.140625 C 16.476562 86.832031 16.3125 86.523438 16.15625 86.210938 C 16.101562 86.101562 16.050781 85.996094 15.996094 85.890625 C 15.964844 85.824219 15.929688 85.757812 15.898438 85.691406 C 15.65625 85.199219 15.425781 84.707031 15.203125 84.207031 C 15.144531 84.078125 15.089844 83.953125 15.035156 83.824219 C 14.875 83.464844 14.722656 83.101562 14.574219 82.734375 C 14.523438 82.609375 14.476562 82.484375 14.425781 82.359375 C 14.371094 82.222656 14.316406 82.085938 14.265625 81.945312 C 14.066406 81.433594 13.878906 80.910156 13.699219 80.386719 C 12.496094 76.855469 11.714844 73.132812 11.414062 69.273438 C 11.96875 69.148438 12.542969 69.082031 13.136719 69.082031 C 15.929688 69.082031 18.378906 70.53125 19.765625 72.71875 C 20.835938 71.652344 22.308594 70.992188 23.941406 70.992188 C 25.433594 70.992188 26.800781 71.542969 27.839844 72.453125 C 29.515625 68.132812 33.59375 64.953125 38.542969 64.648438 C 43.859375 64.316406 48.59375 67.40625 50.585938 72.011719 L 52.910156 48.542969 L 53.152344 46.101562 L 55.304688 46.101562 C 55.921875 47.113281 56.644531 47.816406 56.890625 48.042969 C 56.945312 48.089844 57.023438 48.089844 57.074219 48.042969 C 57.328125 47.816406 58.046875 47.113281 58.664062 46.097656 L 59.476562 46.097656 L 60.824219 46.09375 L 61.066406 48.5 L 63.4375 71.964844 C 65.738281 68.257812 69.960938 65.894531 74.636719 66.175781 C 79.585938 66.472656 83.667969 69.644531 85.351562 73.960938 C 86.390625 73.050781 87.753906 72.492188 89.25 72.492188 C 90.878906 72.492188 92.359375 73.148438 93.425781 74.214844 C 94.8125 72.023438 97.257812 70.566406 100.050781 70.566406 C 100.878906 70.5625 101.675781 70.691406 102.425781 70.929688 "
       fill-opacity="1"
       fill-rule="nonzero"
       id="path1705" />
  </g>
  <g
     clip-path="url(#1437feee56)"
     id="g1711">
    <path
       fill="#f0f4f4"
       d="M 100.355469 80.234375 C 100.332031 80.289062 100.316406 80.347656 100.296875 80.40625 C 100.226562 80.601562 100.160156 80.796875 100.089844 80.992188 C 100 81.246094 99.90625 81.496094 99.8125 81.746094 C 99.734375 81.953125 99.65625 82.160156 99.574219 82.367188 C 99.542969 82.441406 99.511719 82.523438 99.480469 82.601562 C 99.421875 82.75 99.359375 82.898438 99.296875 83.042969 C 99.253906 83.15625 99.207031 83.265625 99.160156 83.378906 C 99.070312 83.589844 98.980469 83.796875 98.890625 84.003906 C 98.796875 84.210938 98.707031 84.421875 98.609375 84.625 C 98.59375 84.664062 98.574219 84.703125 98.554688 84.742188 C 98.46875 84.929688 98.382812 85.117188 98.292969 85.300781 C 97.578125 86.792969 96.785156 88.242188 95.917969 89.640625 C 95.792969 89.84375 95.664062 90.042969 95.535156 90.242188 C 95.417969 90.425781 95.296875 90.609375 95.175781 90.789062 C 95.175781 90.796875 95.171875 90.800781 95.167969 90.804688 C 95.113281 90.890625 95.054688 90.976562 94.996094 91.0625 C 94.882812 91.226562 94.773438 91.390625 94.660156 91.554688 C 94.5 91.785156 94.339844 92.011719 94.175781 92.238281 C 94.035156 92.433594 93.894531 92.628906 93.746094 92.824219 C 93.738281 92.832031 93.730469 92.847656 93.722656 92.855469 C 93.601562 93.019531 93.476562 93.183594 93.351562 93.34375 C 93.144531 93.617188 92.933594 93.886719 92.71875 94.152344 C 92.597656 94.300781 92.480469 94.449219 92.355469 94.59375 C 92.28125 94.6875 92.207031 94.777344 92.132812 94.863281 C 91.730469 95.347656 91.316406 95.820312 90.894531 96.28125 C 90.800781 96.386719 90.707031 96.488281 90.609375 96.59375 C 89.976562 97.273438 89.324219 97.941406 88.648438 98.582031 C 88.558594 98.667969 88.472656 98.75 88.382812 98.835938 C 87.835938 99.347656 87.28125 99.847656 86.710938 100.332031 C 86.59375 100.433594 86.480469 100.53125 86.359375 100.625 C 86.328125 100.652344 86.296875 100.679688 86.265625 100.707031 C 86.15625 100.796875 86.042969 100.890625 85.929688 100.980469 C 84.660156 102.015625 83.332031 102.984375 81.953125 103.882812 C 81.867188 103.9375 81.777344 103.996094 81.691406 104.046875 C 81.46875 104.191406 81.242188 104.335938 81.015625 104.472656 C 80.882812 104.554688 80.75 104.636719 80.617188 104.714844 C 80.484375 104.792969 80.351562 104.875 80.21875 104.953125 C 80.085938 105.03125 79.953125 105.109375 79.816406 105.1875 C 79.683594 105.261719 79.550781 105.339844 79.414062 105.414062 C 78.6875 105.820312 77.949219 106.210938 77.199219 106.578125 C 77.082031 106.636719 76.960938 106.695312 76.839844 106.75 C 76.171875 107.074219 75.5 107.375 74.8125 107.667969 C 74.667969 107.726562 74.523438 107.789062 74.378906 107.847656 C 74.257812 107.894531 74.128906 107.945312 74.007812 107.996094 C 73.550781 108.179688 73.09375 108.351562 72.628906 108.519531 C 72.515625 108.5625 72.40625 108.601562 72.296875 108.640625 C 72.207031 108.671875 72.121094 108.703125 72.03125 108.734375 C 71.398438 108.953125 70.753906 109.160156 70.109375 109.351562 C 69.980469 109.390625 69.851562 109.429688 69.71875 109.464844 C 68.121094 109.925781 66.488281 110.300781 64.820312 110.585938 C 64.664062 110.613281 64.503906 110.636719 64.347656 110.664062 C 64.1875 110.691406 64.027344 110.714844 63.867188 110.738281 C 63.75 110.753906 63.632812 110.773438 63.511719 110.789062 C 63.3125 110.820312 63.113281 110.847656 62.910156 110.871094 C 60.976562 111.121094 59.003906 111.25 57 111.25 C 56.8125 111.25 56.625 111.246094 56.4375 111.246094 C 56.292969 111.246094 56.144531 111.242188 56 111.238281 C 55.871094 111.238281 55.742188 111.234375 55.613281 111.226562 C 55.328125 111.21875 55.042969 111.210938 54.757812 111.195312 C 54.644531 111.191406 54.527344 111.183594 54.414062 111.175781 C 54.273438 111.171875 54.136719 111.164062 54 111.152344 C 53.882812 111.144531 53.765625 111.136719 53.648438 111.128906 C 53.523438 111.121094 53.394531 111.109375 53.269531 111.097656 C 53.152344 111.089844 53.039062 111.082031 52.925781 111.070312 C 52.828125 111.0625 52.734375 111.054688 52.636719 111.046875 C 52.421875 111.027344 52.207031 111.003906 51.992188 110.980469 C 51.8125 110.960938 51.628906 110.941406 51.449219 110.917969 C 51.445312 110.917969 51.4375 110.917969 51.433594 110.917969 C 51.257812 110.894531 51.082031 110.871094 50.902344 110.847656 C 50.734375 110.828125 50.566406 110.804688 50.398438 110.777344 C 50.273438 110.761719 50.148438 110.742188 50.023438 110.722656 C 49.902344 110.703125 49.785156 110.6875 49.664062 110.667969 C 49.539062 110.648438 49.410156 110.625 49.28125 110.601562 C 49.101562 110.574219 48.921875 110.542969 48.746094 110.507812 C 47.300781 110.25 45.882812 109.917969 44.492188 109.523438 C 44.355469 109.484375 44.222656 109.449219 44.085938 109.410156 C 43.882812 109.347656 43.675781 109.289062 43.46875 109.222656 C 43.308594 109.171875 43.152344 109.125 42.992188 109.074219 C 42.824219 109.019531 42.652344 108.964844 42.484375 108.90625 C 42.292969 108.84375 42.101562 108.78125 41.910156 108.710938 C 41.804688 108.675781 41.699219 108.640625 41.59375 108.601562 C 41.222656 108.46875 40.847656 108.332031 40.480469 108.1875 C 40.316406 108.121094 40.148438 108.058594 39.984375 107.992188 C 39.820312 107.925781 39.65625 107.859375 39.496094 107.792969 C 38.976562 107.578125 38.464844 107.355469 37.957031 107.125 C 37.824219 107.0625 37.6875 107.003906 37.554688 106.941406 C 37.398438 106.863281 37.238281 106.789062 37.078125 106.710938 C 36.445312 106.40625 35.816406 106.085938 35.203125 105.753906 C 35.046875 105.667969 34.894531 105.585938 34.742188 105.5 C 34.589844 105.414062 34.4375 105.328125 34.28125 105.242188 C 33.660156 104.886719 33.046875 104.519531 32.445312 104.132812 C 32.332031 104.0625 32.21875 103.988281 32.105469 103.917969 C 31.644531 103.621094 31.191406 103.3125 30.742188 103 C 30.597656 102.898438 30.457031 102.796875 30.316406 102.699219 C 29.75 102.289062 29.191406 101.871094 28.644531 101.4375 C 28.507812 101.332031 28.371094 101.222656 28.234375 101.113281 C 27.71875 100.695312 27.207031 100.265625 26.707031 99.824219 C 26.597656 99.726562 26.488281 99.628906 26.378906 99.535156 C 25.820312 99.03125 25.273438 98.511719 24.738281 97.984375 C 24.613281 97.863281 24.492188 97.742188 24.371094 97.613281 C 24.25 97.492188 24.128906 97.367188 24.007812 97.246094 C 23.160156 96.363281 22.34375 95.449219 21.566406 94.5 C 21.382812 94.277344 21.199219 94.046875 21.019531 93.820312 C 20.988281 93.777344 20.953125 93.734375 20.917969 93.691406 C 20.8125 93.558594 20.710938 93.425781 20.609375 93.289062 C 19.761719 92.183594 18.964844 91.035156 18.222656 89.855469 C 18.128906 89.707031 18.035156 89.5625 17.949219 89.414062 C 17.742188 89.078125 17.539062 88.742188 17.34375 88.402344 C 17.199219 88.152344 17.054688 87.894531 16.914062 87.640625 C 16.90625 87.628906 16.898438 87.613281 16.894531 87.601562 C 16.808594 87.449219 16.722656 87.292969 16.640625 87.140625 C 16.476562 86.832031 16.3125 86.523438 16.15625 86.210938 C 16.101562 86.101562 16.050781 85.996094 15.996094 85.890625 C 15.964844 85.824219 15.929688 85.757812 15.898438 85.691406 C 15.65625 85.199219 15.425781 84.707031 15.203125 84.207031 C 15.144531 84.078125 15.089844 83.953125 15.035156 83.824219 C 14.875 83.464844 14.722656 83.101562 14.574219 82.734375 C 14.523438 82.609375 14.476562 82.484375 14.425781 82.359375 C 14.371094 82.222656 14.316406 82.085938 14.265625 81.945312 C 14.066406 81.433594 13.878906 80.910156 13.699219 80.386719 C 13.941406 80.429688 14.171875 80.492188 14.398438 80.566406 C 15.390625 78.242188 17.703125 76.609375 20.402344 76.609375 C 22.730469 76.605469 24.769531 77.816406 25.925781 79.636719 C 26.816406 78.75 28.046875 78.199219 29.40625 78.199219 C 30.65625 78.199219 31.789062 78.660156 32.65625 79.417969 C 34.054688 75.816406 37.453125 73.167969 41.574219 72.910156 C 46.90625 72.582031 51.535156 76.371094 52.328125 81.527344 L 54.179688 51.34375 L 54.21875 50.691406 L 54.5 46.101562 L 55.304688 46.101562 C 55.921875 47.113281 56.644531 47.816406 56.890625 48.042969 C 56.945312 48.089844 57.023438 48.089844 57.074219 48.042969 C 57.328125 47.816406 58.046875 47.113281 58.664062 46.097656 L 59.476562 46.097656 L 59.765625 50.683594 L 59.808594 51.316406 L 61.621094 80.058594 C 62.722656 75.703125 66.804688 72.601562 71.476562 72.886719 C 75.324219 73.117188 78.503906 75.585938 79.816406 78.941406 C 80.625 78.234375 81.683594 77.800781 82.847656 77.800781 C 84.117188 77.800781 85.265625 78.3125 86.097656 79.140625 C 87.175781 77.433594 89.082031 76.300781 91.253906 76.300781 C 93.773438 76.296875 95.9375 77.820312 96.867188 79.988281 C 97.324219 79.832031 97.808594 79.746094 98.316406 79.746094 C 99.050781 79.746094 99.742188 79.921875 100.355469 80.234375 "
       fill-opacity="1"
       fill-rule="nonzero"
       id="path1709" />
  </g>
  <path
     fill="#f0f4f4"
     d="M 66.0625 22.234375 C 66.0625 24.230469 65.863281 26.183594 65.484375 28.070312 C 64.976562 30.59375 64.152344 32.996094 63.046875 35.242188 C 62.996094 35.34375 62.945312 35.445312 62.894531 35.550781 L 51.074219 35.550781 C 51.019531 35.445312 50.96875 35.34375 50.921875 35.242188 C 49.816406 32.996094 48.988281 30.59375 48.484375 28.070312 C 48.105469 26.183594 47.90625 24.230469 47.90625 22.234375 C 47.90625 17.445312 49.046875 12.921875 51.074219 8.917969 L 62.894531 8.917969 C 64.921875 12.921875 66.0625 17.445312 66.0625 22.234375 "
     fill-opacity="1"
     fill-rule="nonzero"
     id="path1713" />
  <path
     fill="#c2212c"
     d="M 62.894531 35.550781 C 62.667969 36 62.425781 36.445312 62.175781 36.878906 L 51.789062 36.878906 C 51.539062 36.445312 51.300781 36 51.074219 35.550781 L 62.894531 35.550781 "
     fill-opacity="1"
     fill-rule="nonzero"
     id="path1715"
     style="fill:#003760;fill-opacity:1" />
  <path
     fill="#e46e1a"
     d="M 61.4375 46.359375 C 61.398438 47.105469 61.265625 47.820312 61.066406 48.5 C 60.765625 49.539062 60.308594 50.488281 59.808594 51.316406 C 58.773438 53.027344 57.554688 54.210938 57.136719 54.597656 C 57.050781 54.675781 56.917969 54.675781 56.832031 54.597656 C 56.414062 54.214844 55.207031 53.039062 54.179688 51.34375 C 53.679688 50.523438 53.222656 49.578125 52.910156 48.542969 C 52.707031 47.851562 52.566406 47.117188 52.53125 46.355469 C 52.394531 43.691406 52.851562 40.03125 54.425781 38.214844 L 55.449219 38.214844 C 55.335938 38.34375 55.234375 38.488281 55.140625 38.648438 C 54.445312 39.820312 54.238281 41.691406 54.3125 43.101562 C 54.371094 44.25 54.804688 45.277344 55.304688 46.101562 C 55.921875 47.113281 56.644531 47.816406 56.890625 48.042969 C 56.945312 48.089844 57.023438 48.089844 57.074219 48.042969 C 57.328125 47.816406 58.046875 47.113281 58.664062 46.097656 C 59.164062 45.273438 59.597656 44.246094 59.65625 43.101562 C 59.726562 41.71875 59.53125 39.898438 58.871094 38.722656 C 58.765625 38.535156 58.648438 38.363281 58.519531 38.214844 L 59.539062 38.214844 C 61.117188 40.03125 61.574219 43.691406 61.4375 46.359375 "
     fill-opacity="1"
     fill-rule="nonzero"
     id="path1717"
     style="fill:#e4851a;fill-opacity:1" />
  <path
     fill="#c2212c"
     d="M 50.921875 35.242188 C 47.65625 36.789062 45.085938 39.550781 43.796875 42.941406 C 43.71875 43.144531 43.425781 43.128906 43.367188 42.917969 C 43.054688 41.753906 42.886719 40.53125 42.886719 39.269531 C 42.886719 34.695312 45.085938 30.632812 48.484375 28.070312 C 48.988281 30.59375 49.816406 32.996094 50.921875 35.242188 "
     fill-opacity="1"
     fill-rule="nonzero"
     id="path1719"
     style="fill:#003760;fill-opacity:1" />
  <path
     fill="#c2212c"
     d="M 71.078125 39.269531 C 71.078125 40.53125 70.910156 41.753906 70.597656 42.917969 C 70.542969 43.128906 70.246094 43.144531 70.171875 42.941406 C 68.878906 39.550781 66.308594 36.789062 63.046875 35.242188 C 64.152344 32.996094 64.976562 30.59375 65.484375 28.070312 C 68.882812 30.632812 71.078125 34.695312 71.078125 39.269531 "
     fill-opacity="1"
     fill-rule="nonzero"
     id="path1721"
     style="fill:#003760;fill-opacity:1" />
  <path
     fill="#c2212c"
     d="M 62.894531 8.917969 L 51.074219 8.917969 C 51.535156 8 52.046875 7.109375 52.597656 6.25 C 53.8125 4.371094 55.230469 2.636719 56.824219 1.078125 C 56.914062 0.992188 57.054688 0.992188 57.140625 1.078125 C 58.738281 2.636719 60.15625 4.371094 61.367188 6.25 C 61.921875 7.109375 62.429688 8 62.894531 8.917969 "
     fill-opacity="1"
     fill-rule="nonzero"
     id="path1723"
     style="fill:#003760;fill-opacity:1" />
  <path
     fill="#c2212c"
     d="M 59.316406 34.546875 C 59.316406 37.722656 58.5625 40.695312 57.253906 43.21875 C 57.171875 43.382812 56.941406 43.382812 56.855469 43.222656 C 55.457031 40.640625 54.648438 37.570312 54.648438 34.28125 C 54.648438 31.988281 55.042969 29.804688 55.75 27.820312 C 56.023438 27.050781 56.347656 26.308594 56.710938 25.605469 C 56.796875 25.441406 57.027344 25.441406 57.113281 25.601562 C 57.75 26.78125 58.265625 28.0625 58.636719 29.417969 C 59.078125 31.03125 59.316406 32.757812 59.316406 34.546875 "
     fill-opacity="1"
     fill-rule="nonzero"
     id="path1725"
     style="fill:#003760;fill-opacity:1" />
  <path
     fill="#bdc2c5"
     d="M 53.867188 19.839844 L 57.921875 12.824219 C 58.152344 12.875 58.375 12.941406 58.585938 13.03125 L 54.382812 20.308594 C 54.199219 20.167969 54.027344 20.007812 53.867188 19.839844 Z M 52.726562 16.957031 C 52.726562 14.617188 54.632812 12.71875 56.980469 12.71875 C 57.105469 12.71875 57.226562 12.722656 57.347656 12.734375 L 53.492188 19.378906 C 53.011719 18.695312 52.726562 17.859375 52.726562 16.957031 Z M 57.355469 11.082031 C 57.234375 11.074219 57.109375 11.074219 56.980469 11.074219 C 53.71875 11.074219 51.074219 13.707031 51.074219 16.957031 C 51.074219 17.832031 51.269531 18.667969 51.613281 19.417969 C 52.550781 21.4375 54.601562 22.839844 56.980469 22.839844 C 60.246094 22.839844 62.894531 20.207031 62.894531 16.957031 C 62.894531 13.832031 60.449219 11.273438 57.355469 11.082031 "
     fill-opacity="1"
     fill-rule="nonzero"
     id="path1727" />
  <path
     fill="#2b394c"
     d="M 57.921875 12.824219 L 53.867188 19.839844 C 53.734375 19.695312 53.609375 19.542969 53.496094 19.378906 L 57.347656 12.734375 C 57.542969 12.75 57.734375 12.78125 57.921875 12.824219 "
     fill-opacity="1"
     fill-rule="nonzero"
     id="path1729" />
  <path
     fill="#2b394c"
     d="M 61.238281 16.957031 C 61.238281 19.296875 59.332031 21.191406 56.984375 21.191406 C 56.003906 21.191406 55.101562 20.863281 54.382812 20.308594 L 58.585938 13.03125 C 60.140625 13.660156 61.238281 15.179688 61.238281 16.957031 "
     fill-opacity="1"
     fill-rule="nonzero"
     id="path1731" />
  <path
     fill="#f0f4f4"
     d="M 57.347656 12.734375 L 53.496094 19.378906 C 53.011719 18.691406 52.730469 17.859375 52.726562 16.957031 C 52.730469 14.617188 54.632812 12.71875 56.984375 12.71875 C 57.105469 12.71875 57.226562 12.726562 57.347656 12.734375 "
     fill-opacity="1"
     fill-rule="nonzero"
     id="path1733" />
  <path
     fill="#f0f4f4"
     d="M 58.585938 13.03125 L 54.382812 20.308594 C 54.199219 20.167969 54.027344 20.007812 53.867188 19.839844 L 57.921875 12.824219 C 58.152344 12.875 58.375 12.941406 58.585938 13.03125 "
     fill-opacity="1"
     fill-rule="nonzero"
     id="path1735" />
  <path
     fill="#d3f0f4"
     d="M 59.808594 17.152344 C 59.808594 17.449219 59.566406 17.691406 59.269531 17.691406 C 58.96875 17.691406 58.726562 17.449219 58.726562 17.152344 C 58.726562 16.855469 58.96875 16.613281 59.269531 16.613281 C 59.566406 16.613281 59.808594 16.855469 59.808594 17.152344 "
     fill-opacity="1"
     fill-rule="nonzero"
     id="path1737" />
  <path
     fill="#d3f0f4"
     d="M 58.351562 20.25 C 58.351562 20.457031 58.179688 20.628906 57.96875 20.628906 C 57.757812 20.628906 57.589844 20.457031 57.589844 20.25 C 57.589844 20.039062 57.757812 19.867188 57.96875 19.867188 C 58.179688 19.867188 58.351562 20.039062 58.351562 20.25 "
     fill-opacity="1"
     fill-rule="nonzero"
     id="path1739" />
  <path
     fill="#d3f0f4"
     d="M 60.371094 18.972656 C 60.371094 19.140625 60.230469 19.28125 60.058594 19.28125 C 59.886719 19.28125 59.746094 19.140625 59.746094 18.972656 C 59.746094 18.796875 59.886719 18.660156 60.058594 18.660156 C 60.230469 18.660156 60.371094 18.796875 60.371094 18.972656 "
     fill-opacity="1"
     fill-rule="nonzero"
     id="path1741" />
</svg>
