<?xml version="1.0" encoding="UTF-8" standalone="no"?>
<svg
   width="500"
   zoomAndPan="magnify"
   viewBox="0 0 375 374.999991"
   height="500"
   preserveAspectRatio="xMidYMid meet"
   version="1.0"
   id="svg149"
   sodipodi:docname="rocket_hero.svg"
   inkscape:version="1.2.2 (732a01da63, 2022-12-09)"
   xmlns:inkscape="http://www.inkscape.org/namespaces/inkscape"
   xmlns:sodipodi="http://sodipodi.sourceforge.net/DTD/sodipodi-0.dtd"
   xmlns="http://www.w3.org/2000/svg"
   xmlns:svg="http://www.w3.org/2000/svg">
  <sodipodi:namedview
     id="namedview151"
     pagecolor="#505050"
     bordercolor="#ffffff"
     borderopacity="1"
     inkscape:showpageshadow="0"
     inkscape:pageopacity="0"
     inkscape:pagecheckerboard="1"
     inkscape:deskcolor="#505050"
     showgrid="false"
     inkscape:zoom="1.55"
     inkscape:cx="250.64516"
     inkscape:cy="250"
     inkscape:window-width="1920"
     inkscape:window-height="991"
     inkscape:window-x="-9"
     inkscape:window-y="-9"
     inkscape:window-maximized="1"
     inkscape:current-layer="svg149" />
  <defs
     id="defs93">
    <clipPath
       id="a25896ba66">
      <path
         d="M 37.992188 69.242188 L 337.046875 69.242188 L 337.046875 368.445312 L 37.992188 368.445312 Z M 37.992188 69.242188 "
         clip-rule="nonzero"
         id="path81" />
    </clipPath>
    <clipPath
       id="0ea3af23b9">
      <path
         d="M 38 154.257812 L 336.171875 154.257812 L 336.171875 368.445312 L 38 368.445312 Z M 38 154.257812 "
         clip-rule="nonzero"
         id="path84" />
    </clipPath>
    <clipPath
       id="bf3d77867a">
      <path
         d="M 45.804688 154.257812 L 329.738281 154.257812 L 329.738281 368.445312 L 45.804688 368.445312 Z M 45.804688 154.257812 "
         clip-rule="nonzero"
         id="path87" />
    </clipPath>
    <clipPath
       id="7a9b7aa4f0">
      <path
         d="M 168 6.195312 L 207 6.195312 L 207 33 L 168 33 Z M 168 6.195312 "
         clip-rule="nonzero"
         id="path90" />
    </clipPath>
  </defs>
  <g
     clip-path="url(#a25896ba66)"
     id="g97"
     style="fill:#e1341e;fill-opacity:1">
    <path
       fill="#2b394c"
       d="M 337.046875 218.929688 C 337.046875 224.707031 336.722656 230.398438 336.078125 236.003906 C 335.996094 236.757812 335.902344 237.507812 335.804688 238.257812 C 334.550781 248.027344 332.347656 257.492188 329.296875 266.578125 C 311.386719 319.925781 264.210938 359.847656 206.847656 367.242188 C 200.515625 368.0625 194.070312 368.484375 187.523438 368.484375 C 121.789062 368.484375 65.957031 326.054688 45.917969 267.082031 C 41.972656 255.480469 39.414062 243.246094 38.4375 230.5625 C 38.144531 226.722656 37.992188 222.84375 37.992188 218.929688 C 37.992188 136.332031 104.941406 69.371094 187.523438 69.371094 C 270.101562 69.371094 337.046875 136.332031 337.046875 218.929688 "
       fill-opacity="1"
       fill-rule="nonzero"
       id="path95"
       style="fill:#e1341e;fill-opacity:1" />
  </g>
  <path
     fill="#f0f4f4"
     d="M 90.933594 139.847656 L 93.660156 142.585938 L 94.589844 146.28125 L 98.09375 144.625 L 101.984375 144.929688 L 101.421875 141.164062 L 102.898438 137.65625 L 99.054688 136.988281 L 96.070312 134.515625 L 94.253906 137.867188 L 90.933594 139.847656 "
     fill-opacity="1"
     fill-rule="nonzero"
     id="path99" />
  <path
     fill="#f0f4f4"
     d="M 147.328125 195.765625 L 146.277344 199.800781 L 142.285156 201.289062 L 146.4375 202.34375 L 147.992188 206.238281 L 149.046875 202.203125 L 153.039062 200.71875 L 148.886719 199.664062 L 147.328125 195.765625 "
     fill-opacity="1"
     fill-rule="nonzero"
     id="path101" />
  <path
     fill="#f0f4f4"
     d="M 57.734375 194.761719 L 56.300781 200.265625 L 50.847656 202.296875 L 56.519531 203.734375 L 58.640625 209.050781 L 60.078125 203.546875 L 65.527344 201.515625 L 59.859375 200.078125 L 57.734375 194.761719 "
     fill-opacity="1"
     fill-rule="nonzero"
     id="path103" />
  <path
     fill="#f0f4f4"
     d="M 286.808594 201.308594 L 289.753906 204.273438 L 290.761719 208.273438 L 294.550781 206.480469 L 298.765625 206.808594 L 298.160156 202.734375 L 299.757812 198.941406 L 295.589844 198.214844 L 292.363281 195.542969 L 290.398438 199.164062 L 286.808594 201.308594 "
     fill-opacity="1"
     fill-rule="nonzero"
     id="path105" />
  <path
     fill="#f0f4f4"
     d="M 253.328125 130.550781 L 251.773438 136.515625 L 245.875 138.710938 L 252.011719 140.265625 L 254.308594 146.023438 L 255.867188 140.0625 L 261.761719 137.863281 L 255.625 136.308594 L 253.328125 130.550781 "
     fill-opacity="1"
     fill-rule="nonzero"
     id="path107" />
  <g
     clip-path="url(#0ea3af23b9)"
     id="g111">
    <path
       fill="#bdc2c5"
       d="M 336.078125 236.003906 C 335.996094 236.757812 335.902344 237.507812 335.804688 238.257812 C 334.550781 248.027344 332.347656 257.492188 329.296875 266.578125 C 329.230469 266.761719 329.171875 266.953125 329.109375 267.136719 C 328.886719 267.785156 328.667969 268.425781 328.433594 269.070312 C 328.144531 269.898438 327.839844 270.71875 327.53125 271.539062 C 327.277344 272.222656 327.015625 272.902344 326.75 273.582031 C 326.652344 273.835938 326.550781 274.097656 326.441406 274.355469 C 326.246094 274.839844 326.050781 275.328125 325.847656 275.8125 C 325.707031 276.179688 325.550781 276.542969 325.394531 276.914062 C 325.105469 277.601562 324.8125 278.28125 324.515625 278.964844 C 324.210938 279.648438 323.910156 280.332031 323.59375 281.011719 C 323.539062 281.136719 323.480469 281.265625 323.421875 281.390625 C 323.140625 282.003906 322.855469 282.617188 322.566406 283.222656 C 320.226562 288.132812 317.628906 292.886719 314.789062 297.480469 C 314.378906 298.144531 313.960938 298.808594 313.542969 299.460938 C 313.152344 300.0625 312.765625 300.664062 312.371094 301.261719 C 312.363281 301.28125 312.351562 301.292969 312.339844 301.3125 C 312.15625 301.589844 311.964844 301.875 311.773438 302.15625 C 311.410156 302.695312 311.046875 303.238281 310.671875 303.773438 C 310.15625 304.53125 309.625 305.28125 309.09375 306.023438 C 308.632812 306.664062 308.167969 307.304688 307.695312 307.9375 C 307.671875 307.972656 307.640625 308.015625 307.609375 308.050781 C 307.210938 308.589844 306.8125 309.121094 306.402344 309.652344 C 305.726562 310.542969 305.027344 311.429688 304.328125 312.3125 C 303.941406 312.800781 303.546875 313.28125 303.144531 313.761719 C 302.90625 314.0625 302.660156 314.355469 302.414062 314.648438 C 301.097656 316.234375 299.746094 317.785156 298.367188 319.308594 C 298.058594 319.648438 297.746094 319.988281 297.433594 320.324219 C 295.367188 322.566406 293.226562 324.753906 291.019531 326.863281 C 290.730469 327.144531 290.445312 327.417969 290.152344 327.695312 C 288.367188 329.378906 286.546875 331.023438 284.679688 332.617188 C 284.296875 332.945312 283.925781 333.265625 283.539062 333.582031 C 283.4375 333.671875 283.328125 333.757812 283.222656 333.84375 C 282.859375 334.144531 282.492188 334.449219 282.128906 334.746094 C 277.976562 338.152344 273.632812 341.332031 269.117188 344.277344 C 268.839844 344.460938 268.554688 344.648438 268.269531 344.824219 C 267.535156 345.296875 266.796875 345.765625 266.054688 346.222656 C 265.621094 346.492188 265.195312 346.753906 264.757812 347.015625 C 264.324219 347.277344 263.890625 347.539062 263.457031 347.792969 C 263.023438 348.050781 262.582031 348.304688 262.140625 348.5625 C 261.707031 348.8125 261.265625 349.066406 260.820312 349.3125 C 258.449219 350.648438 256.03125 351.929688 253.578125 353.136719 C 253.1875 353.332031 252.796875 353.523438 252.40625 353.707031 C 250.222656 354.761719 248.015625 355.761719 245.773438 356.710938 C 245.300781 356.914062 244.828125 357.113281 244.355469 357.300781 C 243.953125 357.46875 243.542969 357.632812 243.136719 357.796875 C 241.648438 358.394531 240.144531 358.96875 238.628906 359.519531 C 238.265625 359.65625 237.902344 359.78125 237.539062 359.914062 C 237.253906 360.015625 236.964844 360.113281 236.671875 360.214844 C 234.601562 360.9375 232.503906 361.613281 230.390625 362.246094 C 229.96875 362.375 229.546875 362.5 229.117188 362.621094 C 223.890625 364.132812 218.546875 365.363281 213.101562 366.300781 C 212.582031 366.390625 212.0625 366.476562 211.546875 366.558594 C 211.023438 366.648438 210.503906 366.722656 209.980469 366.800781 C 209.59375 366.863281 209.207031 366.921875 208.816406 366.976562 C 208.164062 367.070312 207.507812 367.160156 206.847656 367.242188 C 200.515625 368.0625 194.070312 368.484375 187.523438 368.484375 C 186.90625 368.484375 186.296875 368.480469 185.683594 368.472656 C 185.207031 368.46875 184.726562 368.460938 184.25 368.453125 C 183.828125 368.445312 183.40625 368.433594 182.988281 368.414062 C 182.046875 368.390625 181.113281 368.355469 180.1875 368.308594 C 179.8125 368.289062 179.429688 368.273438 179.054688 368.25 C 178.605469 368.226562 178.152344 368.199219 177.707031 368.164062 C 177.320312 368.140625 176.9375 368.117188 176.558594 368.085938 C 176.148438 368.058594 175.734375 368.027344 175.316406 367.992188 C 174.941406 367.964844 174.566406 367.933594 174.191406 367.898438 C 173.875 367.875 173.566406 367.84375 173.25 367.8125 C 172.550781 367.75 171.839844 367.675781 171.140625 367.601562 C 170.550781 367.535156 169.957031 367.46875 169.367188 367.398438 C 169.347656 367.390625 169.332031 367.390625 169.3125 367.390625 C 168.738281 367.320312 168.160156 367.242188 167.582031 367.164062 C 167.03125 367.09375 166.476562 367.015625 165.929688 366.941406 C 165.523438 366.878906 165.113281 366.820312 164.703125 366.753906 C 164.3125 366.695312 163.925781 366.636719 163.53125 366.570312 C 163.117188 366.503906 162.691406 366.433594 162.277344 366.363281 C 161.695312 366.261719 161.105469 366.160156 160.523438 366.054688 C 155.804688 365.195312 151.164062 364.113281 146.609375 362.816406 C 146.167969 362.691406 145.730469 362.566406 145.289062 362.4375 C 144.617188 362.242188 143.9375 362.039062 143.265625 361.828125 C 142.742188 361.664062 142.230469 361.5 141.714844 361.335938 C 141.15625 361.15625 140.601562 360.976562 140.054688 360.789062 C 139.425781 360.585938 138.800781 360.371094 138.175781 360.144531 C 137.828125 360.023438 137.484375 359.90625 137.140625 359.78125 C 135.917969 359.347656 134.699219 358.894531 133.492188 358.417969 C 132.953125 358.210938 132.410156 358.003906 131.875 357.78125 C 131.339844 357.570312 130.804688 357.347656 130.269531 357.128906 C 128.578125 356.425781 126.902344 355.695312 125.238281 354.933594 C 124.804688 354.730469 124.363281 354.527344 123.929688 354.324219 C 123.410156 354.078125 122.886719 353.832031 122.371094 353.578125 C 120.300781 352.570312 118.253906 351.523438 116.230469 350.421875 C 115.726562 350.152344 115.226562 349.875 114.726562 349.597656 C 114.226562 349.3125 113.726562 349.03125 113.226562 348.746094 C 111.195312 347.582031 109.1875 346.367188 107.21875 345.105469 C 106.84375 344.875 106.476562 344.628906 106.109375 344.390625 C 104.601562 343.414062 103.117188 342.402344 101.644531 341.375 C 101.175781 341.046875 100.714844 340.714844 100.253906 340.386719 C 98.398438 339.046875 96.578125 337.675781 94.78125 336.25 C 94.335938 335.902344 93.890625 335.542969 93.449219 335.183594 C 91.753906 333.808594 90.082031 332.390625 88.445312 330.945312 C 88.089844 330.628906 87.734375 330.308594 87.382812 329.992188 C 85.550781 328.339844 83.761719 326.636719 82.011719 324.902344 C 81.605469 324.503906 81.207031 324.097656 80.808594 323.6875 C 80.410156 323.28125 80.019531 322.875 79.621094 322.46875 C 76.847656 319.570312 74.183594 316.566406 71.636719 313.453125 C 71.042969 312.714844 70.441406 311.972656 69.851562 311.214844 C 69.746094 311.078125 69.632812 310.9375 69.519531 310.792969 C 69.179688 310.359375 68.839844 309.921875 68.507812 309.472656 C 65.738281 305.839844 63.132812 302.070312 60.699219 298.1875 C 60.402344 297.703125 60.097656 297.222656 59.808594 296.742188 C 59.132812 295.640625 58.472656 294.535156 57.832031 293.417969 C 57.355469 292.589844 56.886719 291.75 56.421875 290.914062 C 56.398438 290.867188 56.375 290.828125 56.355469 290.785156 C 56.078125 290.28125 55.804688 289.773438 55.535156 289.269531 C 54.992188 288.257812 54.464844 287.242188 53.945312 286.210938 C 53.769531 285.859375 53.597656 285.507812 53.421875 285.15625 C 53.316406 284.945312 53.210938 284.730469 53.105469 284.507812 C 52.316406 282.898438 51.554688 281.273438 50.824219 279.625 C 50.640625 279.207031 50.453125 278.800781 50.277344 278.375 C 49.761719 277.191406 49.257812 275.996094 48.777344 274.792969 C 48.613281 274.382812 48.453125 273.972656 48.289062 273.5625 C 48.113281 273.109375 47.933594 272.660156 47.761719 272.207031 C 47.117188 270.515625 46.5 268.800781 45.917969 267.082031 C 41.972656 255.480469 39.414062 243.246094 38.4375 230.5625 C 40.25 230.15625 42.132812 229.9375 44.074219 229.9375 C 53.203125 229.929688 61.210938 234.699219 65.75 241.882812 C 69.246094 238.382812 74.070312 236.210938 79.40625 236.207031 C 84.289062 236.207031 88.75 238.019531 92.160156 241.007812 C 97.640625 226.816406 110.972656 216.371094 127.152344 215.367188 C 144.539062 214.28125 160.023438 224.433594 166.546875 239.554688 L 174.148438 162.445312 L 174.941406 154.429688 L 179.347656 154.421875 L 181.976562 154.421875 C 183.992188 157.753906 186.351562 160.058594 187.164062 160.808594 C 187.335938 160.964844 187.59375 160.964844 187.765625 160.808594 C 188.585938 160.058594 190.941406 157.75 192.957031 154.414062 L 195.625 154.414062 L 200.03125 154.40625 L 200.820312 162.300781 L 208.566406 239.40625 C 216.089844 227.222656 229.902344 219.457031 245.203125 220.386719 C 261.378906 221.359375 274.730469 231.785156 280.238281 245.96875 C 283.636719 242.96875 288.09375 241.144531 292.984375 241.144531 C 298.320312 241.136719 303.148438 243.296875 306.644531 246.796875 C 311.175781 239.601562 319.175781 234.8125 328.304688 234.808594 C 331.015625 234.800781 333.628906 235.222656 336.078125 236.003906 "
       fill-opacity="1"
       fill-rule="nonzero"
       id="path109" />
  </g>
  <g
     clip-path="url(#bf3d77867a)"
     id="g115">
    <path
       fill="#f0f4f4"
       d="M 329.296875 266.578125 C 329.230469 266.761719 329.171875 266.953125 329.109375 267.136719 C 328.886719 267.785156 328.667969 268.425781 328.433594 269.070312 C 328.144531 269.898438 327.839844 270.71875 327.53125 271.539062 C 327.277344 272.222656 327.015625 272.902344 326.75 273.582031 C 326.652344 273.835938 326.550781 274.097656 326.441406 274.355469 C 326.246094 274.839844 326.050781 275.328125 325.847656 275.8125 C 325.707031 276.179688 325.550781 276.542969 325.394531 276.914062 C 325.105469 277.601562 324.8125 278.28125 324.515625 278.964844 C 324.210938 279.648438 323.910156 280.332031 323.59375 281.011719 C 323.539062 281.136719 323.480469 281.265625 323.421875 281.390625 C 323.140625 282.003906 322.855469 282.617188 322.566406 283.222656 C 320.226562 288.132812 317.628906 292.886719 314.789062 297.480469 C 314.378906 298.144531 313.960938 298.808594 313.542969 299.460938 C 313.152344 300.0625 312.765625 300.664062 312.371094 301.261719 C 312.363281 301.28125 312.351562 301.292969 312.339844 301.3125 C 312.15625 301.589844 311.964844 301.875 311.773438 302.15625 C 311.410156 302.695312 311.046875 303.238281 310.671875 303.773438 C 310.15625 304.53125 309.625 305.28125 309.09375 306.023438 C 308.632812 306.664062 308.167969 307.304688 307.695312 307.9375 C 307.671875 307.972656 307.640625 308.015625 307.609375 308.050781 C 307.210938 308.589844 306.8125 309.121094 306.402344 309.652344 C 305.726562 310.542969 305.027344 311.429688 304.328125 312.3125 C 303.941406 312.800781 303.546875 313.28125 303.144531 313.761719 C 302.90625 314.0625 302.660156 314.355469 302.414062 314.648438 C 301.097656 316.234375 299.746094 317.785156 298.367188 319.308594 C 298.058594 319.648438 297.746094 319.988281 297.433594 320.324219 C 295.367188 322.566406 293.226562 324.753906 291.019531 326.863281 C 290.730469 327.144531 290.445312 327.417969 290.152344 327.695312 C 288.367188 329.378906 286.546875 331.023438 284.679688 332.617188 C 284.296875 332.945312 283.925781 333.265625 283.539062 333.582031 C 283.4375 333.671875 283.328125 333.757812 283.222656 333.84375 C 282.867188 334.144531 282.496094 334.449219 282.128906 334.746094 C 277.976562 338.152344 273.632812 341.332031 269.117188 344.277344 C 268.839844 344.460938 268.554688 344.648438 268.269531 344.824219 C 267.535156 345.296875 266.796875 345.765625 266.054688 346.222656 C 265.621094 346.492188 265.195312 346.753906 264.757812 347.015625 C 264.324219 347.277344 263.890625 347.539062 263.457031 347.792969 C 263.023438 348.050781 262.582031 348.304688 262.140625 348.5625 C 261.707031 348.8125 261.265625 349.066406 260.820312 349.3125 C 258.449219 350.648438 256.03125 351.929688 253.578125 353.136719 C 253.1875 353.332031 252.796875 353.523438 252.40625 353.707031 C 250.222656 354.761719 248.015625 355.761719 245.773438 356.710938 C 245.300781 356.914062 244.828125 357.113281 244.355469 357.300781 C 243.953125 357.46875 243.542969 357.632812 243.136719 357.796875 C 241.648438 358.394531 240.144531 358.96875 238.628906 359.519531 C 238.265625 359.65625 237.902344 359.78125 237.539062 359.914062 C 237.253906 360.015625 236.964844 360.113281 236.671875 360.214844 C 234.601562 360.9375 232.503906 361.613281 230.390625 362.246094 C 229.96875 362.375 229.546875 362.5 229.117188 362.621094 C 223.890625 364.132812 218.546875 365.363281 213.101562 366.300781 C 212.582031 366.390625 212.0625 366.476562 211.546875 366.558594 C 211.023438 366.648438 210.503906 366.722656 209.980469 366.800781 C 209.59375 366.863281 209.207031 366.921875 208.816406 366.976562 C 208.164062 367.070312 207.507812 367.160156 206.847656 367.242188 C 200.515625 368.0625 194.070312 368.484375 187.523438 368.484375 C 186.90625 368.484375 186.296875 368.480469 185.683594 368.472656 C 185.207031 368.46875 184.726562 368.460938 184.25 368.453125 C 183.828125 368.445312 183.40625 368.433594 182.988281 368.414062 C 182.046875 368.390625 181.113281 368.355469 180.1875 368.308594 C 179.8125 368.289062 179.429688 368.273438 179.054688 368.25 C 178.605469 368.226562 178.160156 368.199219 177.707031 368.164062 C 177.320312 368.140625 176.9375 368.117188 176.558594 368.085938 C 176.148438 368.058594 175.734375 368.027344 175.316406 367.992188 C 174.941406 367.964844 174.566406 367.933594 174.191406 367.898438 C 173.875 367.875 173.566406 367.84375 173.25 367.8125 C 172.550781 367.75 171.839844 367.675781 171.140625 367.601562 C 170.550781 367.535156 169.957031 367.46875 169.367188 367.398438 C 169.347656 367.390625 169.332031 367.390625 169.3125 367.390625 C 168.738281 367.320312 168.160156 367.242188 167.582031 367.164062 C 167.03125 367.09375 166.476562 367.015625 165.929688 366.941406 C 165.523438 366.878906 165.113281 366.820312 164.703125 366.753906 C 164.3125 366.695312 163.925781 366.636719 163.53125 366.570312 C 163.117188 366.503906 162.691406 366.433594 162.277344 366.363281 C 161.695312 366.261719 161.105469 366.160156 160.523438 366.054688 C 155.804688 365.195312 151.164062 364.113281 146.609375 362.816406 C 146.167969 362.691406 145.730469 362.566406 145.289062 362.4375 C 144.617188 362.242188 143.9375 362.039062 143.265625 361.828125 C 142.742188 361.664062 142.230469 361.5 141.714844 361.335938 C 141.15625 361.15625 140.601562 360.976562 140.054688 360.789062 C 139.425781 360.585938 138.800781 360.371094 138.175781 360.144531 C 137.828125 360.023438 137.484375 359.90625 137.140625 359.78125 C 135.917969 359.347656 134.699219 358.894531 133.492188 358.417969 C 132.953125 358.210938 132.410156 358.003906 131.875 357.78125 C 131.339844 357.570312 130.804688 357.347656 130.269531 357.128906 C 128.578125 356.425781 126.902344 355.695312 125.238281 354.933594 C 124.804688 354.730469 124.363281 354.527344 123.929688 354.324219 C 123.410156 354.078125 122.886719 353.832031 122.371094 353.578125 C 120.292969 352.578125 118.246094 351.523438 116.230469 350.421875 C 115.726562 350.152344 115.226562 349.875 114.726562 349.597656 C 114.226562 349.3125 113.726562 349.03125 113.226562 348.746094 C 111.195312 347.582031 109.1875 346.367188 107.21875 345.105469 C 106.84375 344.875 106.476562 344.628906 106.109375 344.390625 C 104.601562 343.414062 103.117188 342.402344 101.644531 341.375 C 101.175781 341.046875 100.714844 340.714844 100.253906 340.386719 C 98.398438 339.046875 96.578125 337.675781 94.78125 336.25 C 94.335938 335.902344 93.890625 335.542969 93.449219 335.183594 C 91.753906 333.808594 90.082031 332.390625 88.445312 330.945312 C 88.089844 330.628906 87.734375 330.308594 87.382812 329.992188 C 85.550781 328.339844 83.761719 326.636719 82.011719 324.902344 C 81.605469 324.503906 81.207031 324.097656 80.808594 323.6875 C 80.410156 323.28125 80.019531 322.875 79.621094 322.46875 C 76.847656 319.570312 74.183594 316.566406 71.636719 313.453125 C 71.035156 312.714844 70.441406 311.964844 69.851562 311.214844 C 69.746094 311.078125 69.632812 310.9375 69.519531 310.792969 C 69.179688 310.359375 68.839844 309.921875 68.507812 309.472656 C 65.738281 305.839844 63.132812 302.070312 60.699219 298.1875 C 60.402344 297.703125 60.097656 297.222656 59.808594 296.742188 C 59.132812 295.640625 58.472656 294.535156 57.832031 293.417969 C 57.355469 292.589844 56.886719 291.75 56.421875 290.914062 C 56.398438 290.867188 56.375 290.828125 56.355469 290.785156 C 56.078125 290.28125 55.804688 289.773438 55.535156 289.269531 C 54.992188 288.257812 54.464844 287.242188 53.945312 286.210938 C 53.769531 285.859375 53.597656 285.507812 53.421875 285.15625 C 53.316406 284.945312 53.210938 284.730469 53.105469 284.507812 C 52.316406 282.898438 51.554688 281.273438 50.824219 279.625 C 50.640625 279.207031 50.453125 278.800781 50.277344 278.375 C 49.761719 277.191406 49.257812 275.996094 48.777344 274.792969 C 48.613281 274.382812 48.453125 273.972656 48.289062 273.5625 C 48.113281 273.109375 47.933594 272.660156 47.761719 272.207031 C 47.117188 270.515625 46.5 268.800781 45.917969 267.082031 C 46.703125 267.222656 47.460938 267.421875 48.195312 267.671875 C 51.445312 260.035156 59.011719 254.671875 67.835938 254.667969 C 75.445312 254.65625 82.117188 258.636719 85.902344 264.621094 C 88.8125 261.699219 92.835938 259.898438 97.28125 259.890625 C 101.359375 259.890625 105.074219 261.402344 107.910156 263.894531 C 112.484375 252.066406 123.59375 243.363281 137.074219 242.515625 C 154.503906 241.433594 169.648438 253.882812 172.246094 270.820312 L 178.296875 171.65625 L 178.425781 169.503906 L 179.347656 154.421875 L 181.976562 154.421875 C 183.992188 157.753906 186.351562 160.058594 187.164062 160.808594 C 187.335938 160.964844 187.59375 160.964844 187.765625 160.808594 C 188.585938 160.058594 190.941406 157.75 192.957031 154.414062 L 195.625 154.414062 L 196.570312 169.488281 L 196.699219 171.558594 L 202.636719 266 C 206.226562 251.691406 219.589844 241.5 234.855469 242.429688 C 247.449219 243.191406 257.839844 251.304688 262.128906 262.335938 C 264.777344 260.011719 268.238281 258.585938 272.050781 258.582031 C 276.199219 258.582031 279.960938 260.261719 282.679688 262.980469 C 286.207031 257.378906 292.4375 253.65625 299.542969 253.648438 C 307.78125 253.644531 314.863281 258.640625 317.898438 265.769531 C 319.386719 265.257812 320.976562 264.976562 322.632812 264.972656 C 325.039062 264.972656 327.300781 265.546875 329.296875 266.578125 "
       fill-opacity="1"
       fill-rule="nonzero"
       id="path113" />
  </g>
  <path
     fill="#f0f4f4"
     d="M 217.152344 76 C 217.152344 82.566406 216.503906 88.984375 215.261719 95.183594 C 213.609375 103.46875 210.90625 111.363281 207.292969 118.742188 C 207.128906 119.082031 206.964844 119.421875 206.792969 119.753906 L 168.136719 119.753906 C 167.96875 119.421875 167.800781 119.082031 167.636719 118.742188 C 164.023438 111.363281 161.320312 103.46875 159.671875 95.183594 C 158.425781 88.984375 157.777344 82.566406 157.777344 76 C 157.777344 60.265625 161.507812 45.402344 168.136719 32.246094 L 206.792969 32.246094 C 213.421875 45.402344 217.152344 60.265625 217.152344 76 "
     fill-opacity="1"
     fill-rule="nonzero"
     id="path117" />
  <path
     fill="#c2212c"
     d="M 206.792969 119.753906 C 206.046875 121.234375 205.265625 122.695312 204.449219 124.128906 L 170.480469 124.128906 C 169.664062 122.695312 168.882812 121.234375 168.136719 119.753906 L 206.792969 119.753906 "
     fill-opacity="1"
     fill-rule="nonzero"
     id="path119"
     style="fill:#000080" />
  <path
     fill="#e46e1a"
     d="m 202.02734,154.78566 c -0.12109,2.45313 -0.55859,4.80859 -1.20703,7.03125 -0.99218,3.42188 -2.48437,6.53906 -4.12109,9.25781 -3.38281,5.6211 -7.36328,9.51563 -8.73828,10.78125 -0.28125,0.26172 -0.71485,0.26172 -0.99219,0 -1.36719,-1.25781 -5.3125,-5.11328 -8.67187,-10.68359 -1.63672,-2.70313 -3.13672,-5.80469 -4.14844,-9.21094 -0.67188,-2.26562 -1.125,-4.67578 -1.2461,-7.17969 -0.44921,-8.76171 1.04297,-20.77734 6.20313,-26.75781 h 3.33984 c -0.36718,0.42969 -0.70703,0.91016 -1.00781,1.4336 -2.27734,3.85156 -2.95312,9.99609 -2.71484,14.625 0.19922,3.77343 1.61328,7.15625 3.2539,9.85546 2.01563,3.33204 4.375,5.63672 5.1875,6.38672 0.17188,0.15625 0.42969,0.15625 0.60157,0 0.82031,-0.75 3.17578,-3.05859 5.1914,-6.39453 1.63672,-2.70312 3.0586,-6.08203 3.2461,-9.84765 0.23437,-4.53907 -0.40235,-10.52344 -2.56641,-14.38672 -0.34375,-0.61719 -0.73438,-1.17578 -1.15625,-1.67188 h 3.34375 c 5.15625,5.98047 6.65625,18.00391 6.20312,26.76172"
     fill-opacity="1"
     fill-rule="nonzero"
     id="path121"
     style="fill:#e99b3b;fill-opacity:1" />
  <path
     fill="#c2212c"
     d="M 167.636719 118.742188 C 156.964844 123.832031 148.558594 132.90625 144.339844 144.042969 C 144.089844 144.710938 143.125 144.65625 142.941406 143.964844 C 141.914062 140.140625 141.367188 136.125 141.367188 131.972656 C 141.367188 116.949219 148.550781 103.605469 159.671875 95.183594 C 161.320312 103.46875 164.023438 111.363281 167.636719 118.742188 "
     fill-opacity="1"
     fill-rule="nonzero"
     id="path123"
     style="fill:#003760;fill-opacity:1" />
  <path
     fill="#c2212c"
     d="M 233.566406 131.972656 C 233.566406 136.125 233.015625 140.140625 231.992188 143.964844 C 231.804688 144.65625 230.84375 144.710938 230.589844 144.042969 C 226.371094 132.90625 217.964844 123.832031 207.292969 118.742188 C 210.90625 111.363281 213.609375 103.46875 215.261719 95.183594 C 226.378906 103.605469 233.566406 116.949219 233.566406 131.972656 "
     fill-opacity="1"
     fill-rule="nonzero"
     id="path125"
     style="fill:#003760;fill-opacity:1" />
  <g
     clip-path="url(#7a9b7aa4f0)"
     id="g129"
     style="fill:#0000ff">
    <path
       fill="#c2212c"
       d="M 206.792969 32.246094 L 168.136719 32.246094 C 169.652344 29.238281 171.320312 26.3125 173.125 23.492188 C 177.089844 17.316406 181.730469 11.617188 186.945312 6.496094 C 187.234375 6.214844 187.699219 6.214844 187.984375 6.496094 C 193.199219 11.617188 197.839844 17.316406 201.804688 23.492188 C 203.609375 26.3125 205.277344 29.238281 206.792969 32.246094 "
       fill-opacity="1"
       fill-rule="nonzero"
       id="path127"
       style="fill:#0000ff" />
  </g>
  <path
     fill="#c2212c"
     d="M 195.097656 116.457031 C 195.097656 126.898438 192.632812 136.65625 188.351562 144.957031 C 188.078125 145.488281 187.324219 145.5 187.039062 144.972656 C 182.476562 136.484375 179.832031 126.402344 179.832031 115.585938 C 179.832031 108.058594 181.113281 100.882812 183.433594 94.359375 C 184.328125 91.828125 185.382812 89.398438 186.578125 87.082031 C 186.851562 86.550781 187.609375 86.542969 187.890625 87.070312 C 189.972656 90.945312 191.65625 95.152344 192.871094 99.605469 C 194.316406 104.914062 195.097656 110.578125 195.097656 116.457031 "
     fill-opacity="1"
     fill-rule="nonzero"
     id="path131"
     style="fill:#0000ff" />
  <path
     fill="#bdc2c5"
     d="M 177.273438 68.140625 L 190.53125 45.085938 C 191.289062 45.253906 192.011719 45.476562 192.707031 45.769531 L 178.960938 69.675781 C 178.359375 69.210938 177.796875 68.691406 177.273438 68.140625 Z M 173.546875 58.660156 C 173.546875 50.976562 179.777344 44.742188 187.460938 44.742188 C 187.867188 44.742188 188.265625 44.757812 188.65625 44.792969 L 176.050781 66.628906 C 174.476562 64.375 173.546875 61.628906 173.546875 58.660156 Z M 188.6875 39.367188 C 188.28125 39.335938 187.871094 39.332031 187.460938 39.332031 C 176.792969 39.332031 168.136719 47.984375 168.136719 58.660156 C 168.136719 61.546875 168.773438 64.289062 169.902344 66.746094 C 172.964844 73.386719 179.675781 77.992188 187.460938 77.992188 C 198.140625 77.992188 206.792969 69.339844 206.792969 58.660156 C 206.792969 48.394531 198.792969 40 188.6875 39.367188 "
     fill-opacity="1"
     fill-rule="nonzero"
     id="path133" />
  <path
     fill="#2b394c"
     d="M 190.53125 45.082031 L 177.273438 68.140625 C 176.832031 67.664062 176.425781 67.160156 176.054688 66.628906 L 188.660156 44.792969 C 189.296875 44.84375 189.921875 44.945312 190.53125 45.082031 "
     fill-opacity="1"
     fill-rule="nonzero"
     id="path135" />
  <path
     fill="#2b394c"
     d="M 201.378906 58.664062 C 201.378906 66.347656 195.152344 72.578125 187.464844 72.578125 C 184.261719 72.578125 181.3125 71.5 178.960938 69.675781 L 192.707031 45.765625 C 197.792969 47.835938 201.378906 52.832031 201.378906 58.664062 "
     fill-opacity="1"
     fill-rule="nonzero"
     id="path137" />
  <path
     fill="#f0f4f4"
     d="M 188.660156 44.792969 L 176.054688 66.628906 C 174.476562 64.371094 173.550781 61.628906 173.546875 58.664062 C 173.550781 50.976562 179.78125 44.742188 187.464844 44.742188 C 187.867188 44.742188 188.265625 44.761719 188.660156 44.792969 "
     fill-opacity="1"
     fill-rule="nonzero"
     id="path139" />
  <path
     fill="#f0f4f4"
     d="M 192.707031 45.765625 L 178.960938 69.675781 C 178.359375 69.210938 177.792969 68.695312 177.273438 68.140625 L 190.53125 45.082031 L 190.535156 45.082031 C 191.285156 45.25 192.011719 45.476562 192.707031 45.765625 "
     fill-opacity="1"
     fill-rule="nonzero"
     id="path141" />
  <path
     fill="#d3f0f4"
     d="M 196.703125 59.308594 C 196.703125 60.285156 195.910156 61.078125 194.9375 61.078125 C 193.960938 61.078125 193.167969 60.285156 193.167969 59.308594 C 193.167969 58.335938 193.960938 57.542969 194.9375 57.542969 C 195.910156 57.542969 196.703125 58.335938 196.703125 59.308594 "
     fill-opacity="1"
     fill-rule="nonzero"
     id="path143" />
  <path
     fill="#d3f0f4"
     d="M 191.9375 69.480469 C 191.9375 70.171875 191.378906 70.730469 190.691406 70.730469 C 190 70.730469 189.441406 70.171875 189.441406 69.480469 C 189.441406 68.792969 190 68.234375 190.691406 68.234375 C 191.378906 68.234375 191.9375 68.792969 191.9375 69.480469 "
     fill-opacity="1"
     fill-rule="nonzero"
     id="path145" />
  <path
     fill="#d3f0f4"
     d="M 198.539062 65.28125 C 198.539062 65.847656 198.082031 66.304688 197.519531 66.304688 C 196.953125 66.304688 196.496094 65.847656 196.496094 65.28125 C 196.496094 64.71875 196.953125 64.261719 197.519531 64.261719 C 198.082031 64.261719 198.539062 64.71875 198.539062 65.28125 "
     fill-opacity="1"
     fill-rule="nonzero"
     id="path147" />
</svg>
